<svg width="282" height="285" viewBox="0 0 282 285" fill="none" xmlns="http://www.w3.org/2000/svg">
<path fill-rule="evenodd" clip-rule="evenodd" d="M15.6484 25.528C17.2238 27.0857 18.0417 29.3552 18.3512 31.9535C18.6601 34.5475 18.4554 37.4141 18.0372 40.0983C17.6196 42.779 16.9924 45.2567 16.4689 47.0657C16.2073 47.9697 15.9721 48.7052 15.8025 49.2138C15.7177 49.4681 15.6494 49.6656 15.6025 49.7991C15.579 49.8658 15.5609 49.9164 15.5488 49.9502L15.5351 49.9879L15.5317 49.9971L15.531 49.9992L15.5308 49.9996L16 50.1724C7.16344 50.1724 0 38.9795 0 25.1724C0 11.6456 6.87555 0.627944 15.464 0.18619C15.4608 0.195129 15.4575 0.204377 15.4542 0.213933C15.4055 0.352218 15.3354 0.554941 15.2488 0.814772C15.0756 1.33437 14.8363 2.08272 14.5705 3.00112C14.0393 4.8367 13.4008 7.35759 12.9747 10.0926C12.5491 12.8242 12.332 15.7904 12.6559 18.5096C12.9792 21.2245 13.8488 23.7486 15.6484 25.528ZM16 0.172422C15.5308 -0.000394876 15.5308 -0.000223423 15.5307 1.77222e-05L15.5304 0.000849177L15.5293 0.00376329L15.5253 0.014559L15.5104 0.0557208C15.4993 0.0867667 15.4836 0.130452 15.464 0.18619C15.6419 0.177036 15.8206 0.172422 16 0.172422ZM16 0.172422L16.4692 0.345244L16.469 0.345668L16.4683 0.347762L16.4649 0.3569L16.4512 0.39467C16.4391 0.428401 16.421 0.479077 16.3975 0.545783C16.3506 0.679202 16.2823 0.876715 16.1975 1.13102C16.0279 1.63968 15.7927 2.37518 15.5311 3.2791C15.0076 5.08818 14.3804 7.56587 13.9628 10.2466C13.5446 12.9307 13.3399 15.7974 13.6488 18.3914C13.9583 20.9897 14.7762 23.2592 16.3516 24.8169C18.1512 26.5963 19.0208 29.1203 19.3441 31.8352C19.668 34.5545 19.4509 37.5207 19.0253 40.2522C18.5992 42.9873 17.9607 45.5081 17.4295 47.3437C17.1637 48.2621 16.9244 49.0105 16.7512 49.5301C16.6646 49.7899 16.5945 49.9926 16.5458 50.1309C16.5425 50.1405 16.5392 50.1497 16.536 50.1587C16.3581 50.1678 16.1794 50.1724 16 50.1724C16.4692 50.3452 16.4692 50.3451 16.4693 50.3448L16.4696 50.344L16.4707 50.3411L16.4747 50.3303L16.4896 50.2891C16.5007 50.2581 16.5164 50.2144 16.536 50.1587C25.1244 49.7169 32 38.6992 32 25.1724C32 11.3653 24.8366 0.172422 16 0.172422Z" fill="#252525"/>
<path d="M81.5 25.1724C81.5 31.995 79.7292 38.1483 76.8926 42.5805C74.0524 47.0183 70.1894 49.6724 66 49.6724C61.8106 49.6724 57.9476 47.0183 55.1074 42.5805C52.2708 38.1483 50.5 31.995 50.5 25.1724C50.5 18.3498 52.2708 12.1964 55.1074 7.76422C57.9476 3.32644 61.8106 0.672363 66 0.672363C70.1894 0.672363 74.0524 3.32644 76.8926 7.76422C79.7292 12.1964 81.5 18.3498 81.5 25.1724Z" stroke="#252525"/>
<path d="M66 0.172363C66 0.172363 59.25 18.4982 66 25.1724C72.75 31.8466 66 50.1724 66 50.1724" stroke="#252525"/>
<path d="M131.5 25.1724C131.5 31.995 129.729 38.1483 126.893 42.5805C124.052 47.0183 120.189 49.6724 116 49.6724C111.811 49.6724 107.948 47.0183 105.107 42.5805C102.271 38.1483 100.5 31.995 100.5 25.1724C100.5 18.3498 102.271 12.1964 105.107 7.76422C107.948 3.32644 111.811 0.672363 116 0.672363C120.189 0.672363 124.052 3.32644 126.893 7.76422C129.729 12.1964 131.5 18.3498 131.5 25.1724Z" stroke="#252525"/>
<path d="M116 0.172363C116 0.172363 109.25 18.4982 116 25.1724C122.75 31.8466 116 50.1724 116 50.1724" stroke="#252525"/>
<path d="M181.5 25.1724C181.5 31.995 179.729 38.1483 176.893 42.5805C174.052 47.0183 170.189 49.6724 166 49.6724C161.811 49.6724 157.948 47.0183 155.107 42.5805C152.271 38.1483 150.5 31.995 150.5 25.1724C150.5 18.3498 152.271 12.1964 155.107 7.76422C157.948 3.32644 161.811 0.672363 166 0.672363C170.189 0.672363 174.052 3.32644 176.893 7.76422C179.729 12.1964 181.5 18.3498 181.5 25.1724Z" stroke="#252525"/>
<path d="M166 0.172363C166 0.172363 159.25 18.4982 166 25.1724C172.75 31.8466 166 50.1724 166 50.1724" stroke="#252525"/>
<path d="M231.5 25.1724C231.5 31.995 229.729 38.1483 226.893 42.5805C224.052 47.0183 220.189 49.6724 216 49.6724C211.811 49.6724 207.948 47.0183 205.107 42.5805C202.271 38.1483 200.5 31.995 200.5 25.1724C200.5 18.3498 202.271 12.1964 205.107 7.76422C207.948 3.32644 211.811 0.672363 216 0.672363C220.189 0.672363 224.052 3.32644 226.893 7.76422C229.729 12.1964 231.5 18.3498 231.5 25.1724Z" stroke="#252525"/>
<path d="M216 0.172363C216 0.172363 209.25 18.4982 216 25.1724C222.75 31.8466 216 50.1724 216 50.1724" stroke="#252525"/>
<path d="M281.5 25.1724C281.5 31.995 279.729 38.1483 276.893 42.5805C274.052 47.0183 270.189 49.6724 266 49.6724C261.811 49.6724 257.948 47.0183 255.107 42.5805C252.271 38.1483 250.5 31.995 250.5 25.1724C250.5 18.3498 252.271 12.1964 255.107 7.76422C257.948 3.32644 261.811 0.672363 266 0.672363C270.189 0.672363 274.052 3.32644 276.893 7.76422C279.729 12.1964 281.5 18.3498 281.5 25.1724Z" stroke="#252525"/>
<path d="M266 0.172363C266 0.172363 259.25 18.4982 266 25.1724C272.75 31.8466 266 50.1724 266 50.1724" stroke="#252525"/>
<path fill-rule="evenodd" clip-rule="evenodd" d="M15.6484 142.528C17.2238 144.086 18.0417 146.355 18.3512 148.953C18.6601 151.547 18.4554 154.414 18.0372 157.098C17.6196 159.779 16.9924 162.257 16.4689 164.066C16.2073 164.97 15.9721 165.705 15.8025 166.214C15.7177 166.468 15.6494 166.666 15.6025 166.799C15.579 166.866 15.5609 166.916 15.5488 166.95L15.5351 166.988L15.5317 166.997L15.531 166.999L15.5308 167L16 167.172C7.16344 167.172 0 155.98 0 142.172C0 128.646 6.87555 117.628 15.464 117.186C15.4608 117.195 15.4575 117.204 15.4542 117.214C15.4055 117.352 15.3354 117.555 15.2488 117.815C15.0756 118.334 14.8363 119.083 14.5705 120.001C14.0393 121.837 13.4008 124.358 12.9747 127.093C12.5491 129.824 12.332 132.79 12.6559 135.51C12.9792 138.225 13.8488 140.749 15.6484 142.528ZM16 117.172C15.5308 117 15.5308 117 15.5307 117L15.5304 117.001L15.5293 117.004L15.5253 117.015L15.5104 117.056C15.4993 117.087 15.4836 117.13 15.464 117.186C15.6419 117.177 15.8206 117.172 16 117.172ZM16 117.172L16.4692 117.345L16.469 117.346L16.4683 117.348L16.4649 117.357L16.4512 117.395C16.4391 117.428 16.421 117.479 16.3975 117.546C16.3506 117.679 16.2823 117.877 16.1975 118.131C16.0279 118.64 15.7927 119.375 15.5311 120.279C15.0076 122.088 14.3804 124.566 13.9628 127.247C13.5446 129.931 13.3399 132.797 13.6488 135.391C13.9583 137.99 14.7762 140.259 16.3516 141.817C18.1512 143.596 19.0208 146.12 19.3441 148.835C19.668 151.554 19.4509 154.521 19.0253 157.252C18.5992 159.987 17.9607 162.508 17.4295 164.344C17.1637 165.262 16.9244 166.01 16.7512 166.53C16.6646 166.79 16.5945 166.993 16.5458 167.131C16.5425 167.14 16.5392 167.15 16.536 167.159C16.3581 167.168 16.1794 167.172 16 167.172C16.4692 167.345 16.4692 167.345 16.4693 167.345L16.4696 167.344L16.4707 167.341L16.4747 167.33L16.4896 167.289C16.5007 167.258 16.5164 167.214 16.536 167.159C25.1244 166.717 32 155.699 32 142.172C32 128.365 24.8366 117.172 16 117.172Z" fill="#252525"/>
<path fill-rule="evenodd" clip-rule="evenodd" d="M65.6484 142.528C67.2238 144.086 68.0417 146.355 68.3512 148.953C68.6601 151.547 68.4554 154.414 68.0372 157.098C67.6196 159.779 66.9924 162.257 66.4689 164.066C66.2073 164.97 65.9721 165.705 65.8025 166.214C65.7177 166.468 65.6494 166.666 65.6025 166.799C65.579 166.866 65.5609 166.916 65.5488 166.95L65.5351 166.988L65.5317 166.997L65.531 166.999L65.5308 167L66 167.172C57.1634 167.172 50 155.98 50 142.172C50 128.646 56.8756 117.628 65.464 117.186C65.4608 117.195 65.4575 117.204 65.4542 117.214C65.4055 117.352 65.3354 117.555 65.2488 117.815C65.0756 118.334 64.8363 119.083 64.5705 120.001C64.0393 121.837 63.4008 124.358 62.9747 127.093C62.5491 129.824 62.332 132.79 62.6559 135.51C62.9792 138.225 63.8488 140.749 65.6484 142.528ZM66 117.172C65.5308 117 65.5308 117 65.5307 117L65.5304 117.001L65.5293 117.004L65.5253 117.015L65.5104 117.056C65.4993 117.087 65.4836 117.13 65.464 117.186C65.6419 117.177 65.8206 117.172 66 117.172ZM66 117.172L66.4692 117.345L66.469 117.346L66.4683 117.348L66.4649 117.357L66.4512 117.395C66.4391 117.428 66.421 117.479 66.3975 117.546C66.3506 117.679 66.2823 117.877 66.1975 118.131C66.0279 118.64 65.7927 119.375 65.5311 120.279C65.0076 122.088 64.3804 124.566 63.9628 127.247C63.5446 129.931 63.3399 132.797 63.6488 135.391C63.9583 137.99 64.7762 140.259 66.3516 141.817C68.1512 143.596 69.0208 146.12 69.3441 148.835C69.668 151.554 69.4509 154.521 69.0253 157.252C68.5992 159.987 67.9607 162.508 67.4295 164.344C67.1637 165.262 66.9244 166.01 66.7512 166.53C66.6646 166.79 66.5945 166.993 66.5458 167.131C66.5425 167.14 66.5392 167.15 66.536 167.159C66.3581 167.168 66.1794 167.172 66 167.172C66.4692 167.345 66.4692 167.345 66.4693 167.345L66.4696 167.344L66.4707 167.341L66.4747 167.33L66.4896 167.289C66.5007 167.258 66.5164 167.214 66.536 167.159C75.1244 166.717 82 155.699 82 142.172C82 128.365 74.8366 117.172 66 117.172Z" fill="#252525"/>
<path d="M131.5 142.172C131.5 148.995 129.729 155.148 126.893 159.581C124.052 164.018 120.189 166.672 116 166.672C111.811 166.672 107.948 164.018 105.107 159.581C102.271 155.148 100.5 148.995 100.5 142.172C100.5 135.35 102.271 129.196 105.107 124.764C107.948 120.326 111.811 117.672 116 117.672C120.189 117.672 124.052 120.326 126.893 124.764C129.729 129.196 131.5 135.35 131.5 142.172Z" stroke="#252525"/>
<path d="M116 117.172C116 117.172 109.25 135.498 116 142.172C122.75 148.847 116 167.172 116 167.172" stroke="#252525"/>
<path d="M181.5 142.172C181.5 148.995 179.729 155.148 176.893 159.581C174.052 164.018 170.189 166.672 166 166.672C161.811 166.672 157.948 164.018 155.107 159.581C152.271 155.148 150.5 148.995 150.5 142.172C150.5 135.35 152.271 129.196 155.107 124.764C157.948 120.326 161.811 117.672 166 117.672C170.189 117.672 174.052 120.326 176.893 124.764C179.729 129.196 181.5 135.35 181.5 142.172Z" stroke="#252525"/>
<path d="M166 117.172C166 117.172 159.25 135.498 166 142.172C172.75 148.847 166 167.172 166 167.172" stroke="#252525"/>
<path d="M231.5 142.172C231.5 148.995 229.729 155.148 226.893 159.581C224.052 164.018 220.189 166.672 216 166.672C211.811 166.672 207.948 164.018 205.107 159.581C202.271 155.148 200.5 148.995 200.5 142.172C200.5 135.35 202.271 129.196 205.107 124.764C207.948 120.326 211.811 117.672 216 117.672C220.189 117.672 224.052 120.326 226.893 124.764C229.729 129.196 231.5 135.35 231.5 142.172Z" stroke="#252525"/>
<path d="M216 117.172C216 117.172 209.25 135.498 216 142.172C222.75 148.847 216 167.172 216 167.172" stroke="#252525"/>
<path d="M281.5 142.172C281.5 148.995 279.729 155.148 276.893 159.581C274.052 164.018 270.189 166.672 266 166.672C261.811 166.672 257.948 164.018 255.107 159.581C252.271 155.148 250.5 148.995 250.5 142.172C250.5 135.35 252.271 129.196 255.107 124.764C257.948 120.326 261.811 117.672 266 117.672C270.189 117.672 274.052 120.326 276.893 124.764C279.729 129.196 281.5 135.35 281.5 142.172Z" stroke="#252525"/>
<path d="M266 117.172C266 117.172 259.25 135.498 266 142.172C272.75 148.847 266 167.172 266 167.172" stroke="#252525"/>
<path fill-rule="evenodd" clip-rule="evenodd" d="M65.6484 259.528C67.2238 261.086 68.0417 263.355 68.3512 265.953C68.6601 268.547 68.4554 271.414 68.0372 274.098C67.6196 276.779 66.9924 279.257 66.4689 281.066C66.2073 281.97 65.9721 282.705 65.8025 283.214C65.7177 283.468 65.6494 283.666 65.6025 283.799C65.579 283.866 65.5609 283.916 65.5488 283.95L65.5351 283.988L65.5317 283.997L65.531 283.999L65.5308 284L66 284.172C57.1634 284.172 50 272.98 50 259.172C50 245.646 56.8756 234.628 65.464 234.186C65.4608 234.195 65.4575 234.204 65.4542 234.214C65.4055 234.352 65.3354 234.555 65.2488 234.815C65.0756 235.334 64.8363 236.083 64.5705 237.001C64.0393 238.837 63.4008 241.358 62.9747 244.093C62.5491 246.824 62.332 249.79 62.6559 252.51C62.9792 255.225 63.8488 257.749 65.6484 259.528ZM66 234.172C65.5308 234 65.5308 234 65.5307 234L65.5304 234.001L65.5293 234.004L65.5253 234.015L65.5104 234.056C65.4993 234.087 65.4836 234.13 65.464 234.186C65.6419 234.177 65.8206 234.172 66 234.172ZM66 234.172L66.4692 234.345L66.469 234.346L66.4683 234.348L66.4649 234.357L66.4512 234.395C66.4391 234.428 66.421 234.479 66.3975 234.546C66.3506 234.679 66.2823 234.877 66.1975 235.131C66.0279 235.64 65.7927 236.375 65.5311 237.279C65.0076 239.088 64.3804 241.566 63.9628 244.247C63.5446 246.931 63.3399 249.797 63.6488 252.391C63.9583 254.99 64.7762 257.259 66.3516 258.817C68.1512 260.596 69.0208 263.12 69.3441 265.835C69.668 268.554 69.4509 271.521 69.0253 274.252C68.5992 276.987 67.9607 279.508 67.4295 281.344C67.1637 282.262 66.9244 283.01 66.7512 283.53C66.6646 283.79 66.5945 283.993 66.5458 284.131C66.5425 284.14 66.5392 284.15 66.536 284.159C66.3581 284.168 66.1794 284.172 66 284.172C66.4692 284.345 66.4692 284.345 66.4693 284.345L66.4696 284.344L66.4707 284.341L66.4747 284.33L66.4896 284.289C66.5007 284.258 66.5164 284.214 66.536 284.159C75.1244 283.717 82 272.699 82 259.172C82 245.365 74.8366 234.172 66 234.172Z" fill="#252525"/>
<path fill-rule="evenodd" clip-rule="evenodd" d="M115.648 259.528C117.224 261.086 118.042 263.355 118.351 265.953C118.66 268.547 118.455 271.414 118.037 274.098C117.62 276.779 116.992 279.257 116.469 281.066C116.207 281.97 115.972 282.705 115.803 283.214C115.718 283.468 115.649 283.666 115.602 283.799C115.579 283.866 115.561 283.916 115.549 283.95L115.535 283.988L115.532 283.997L115.531 283.999L115.531 284L116 284.172C107.163 284.172 100 272.98 100 259.172C100 245.646 106.876 234.628 115.464 234.186C115.461 234.195 115.458 234.204 115.454 234.214C115.406 234.352 115.335 234.555 115.249 234.815C115.076 235.334 114.836 236.083 114.57 237.001C114.039 238.837 113.401 241.358 112.975 244.093C112.549 246.824 112.332 249.79 112.656 252.51C112.979 255.225 113.849 257.749 115.648 259.528ZM116 234.172C115.531 234 115.531 234 115.531 234L115.53 234.001L115.529 234.004L115.525 234.015L115.51 234.056C115.499 234.087 115.484 234.13 115.464 234.186C115.642 234.177 115.821 234.172 116 234.172ZM116 234.172L116.469 234.345L116.469 234.346L116.468 234.348L116.465 234.357L116.451 234.395C116.439 234.428 116.421 234.479 116.398 234.546C116.351 234.679 116.282 234.877 116.197 235.131C116.028 235.64 115.793 236.375 115.531 237.279C115.008 239.088 114.38 241.566 113.963 244.247C113.545 246.931 113.34 249.797 113.649 252.391C113.958 254.99 114.776 257.259 116.352 258.817C118.151 260.596 119.021 263.12 119.344 265.835C119.668 268.554 119.451 271.521 119.025 274.252C118.599 276.987 117.961 279.508 117.43 281.344C117.164 282.262 116.924 283.01 116.751 283.53C116.665 283.79 116.594 283.993 116.546 284.131C116.542 284.14 116.539 284.15 116.536 284.159C116.358 284.168 116.179 284.172 116 284.172C116.469 284.345 116.469 284.345 116.469 284.345L116.47 284.344L116.471 284.341L116.475 284.33L116.49 284.289C116.501 284.258 116.516 284.214 116.536 284.159C125.124 283.717 132 272.699 132 259.172C132 245.365 124.837 234.172 116 234.172Z" fill="#252525"/>
<path fill-rule="evenodd" clip-rule="evenodd" d="M15.6484 259.528C17.2238 261.086 18.0417 263.355 18.3512 265.953C18.6601 268.547 18.4554 271.414 18.0372 274.098C17.6196 276.779 16.9924 279.257 16.4689 281.066C16.2073 281.97 15.9721 282.705 15.8025 283.214C15.7177 283.468 15.6494 283.666 15.6025 283.799C15.579 283.866 15.5609 283.916 15.5488 283.95L15.5351 283.988L15.5317 283.997L15.531 283.999L15.5308 284L16 284.172C7.16344 284.172 0 272.98 0 259.172C0 245.646 6.87555 234.628 15.464 234.186C15.4608 234.195 15.4575 234.204 15.4542 234.214C15.4055 234.352 15.3354 234.555 15.2488 234.815C15.0756 235.334 14.8363 236.083 14.5705 237.001C14.0393 238.837 13.4008 241.358 12.9747 244.093C12.5491 246.824 12.332 249.79 12.6559 252.51C12.9792 255.225 13.8488 257.749 15.6484 259.528ZM16 234.172C15.5308 234 15.5308 234 15.5307 234L15.5304 234.001L15.5293 234.004L15.5253 234.015L15.5104 234.056C15.4993 234.087 15.4836 234.13 15.464 234.186C15.6419 234.177 15.8206 234.172 16 234.172ZM16 234.172L16.4692 234.345L16.469 234.346L16.4683 234.348L16.4649 234.357L16.4512 234.395C16.4391 234.428 16.421 234.479 16.3975 234.546C16.3506 234.679 16.2823 234.877 16.1975 235.131C16.0279 235.64 15.7927 236.375 15.5311 237.279C15.0076 239.088 14.3804 241.566 13.9628 244.247C13.5446 246.931 13.3399 249.797 13.6488 252.391C13.9583 254.99 14.7762 257.259 16.3516 258.817C18.1512 260.596 19.0208 263.12 19.3441 265.835C19.668 268.554 19.4509 271.521 19.0253 274.252C18.5992 276.987 17.9607 279.508 17.4295 281.344C17.1637 282.262 16.9244 283.01 16.7512 283.53C16.6646 283.79 16.5945 283.993 16.5458 284.131C16.5425 284.14 16.5392 284.15 16.536 284.159C16.3581 284.168 16.1794 284.172 16 284.172C16.4692 284.345 16.4692 284.345 16.4693 284.345L16.4696 284.344L16.4707 284.341L16.4747 284.33L16.4896 284.289C16.5007 284.258 16.5164 284.214 16.536 284.159C25.1244 283.717 32 272.699 32 259.172C32 245.365 24.8366 234.172 16 234.172Z" fill="#252525"/>
<path d="M181.5 259.172C181.5 265.995 179.729 272.148 176.893 276.581C174.052 281.018 170.189 283.672 166 283.672C161.811 283.672 157.948 281.018 155.107 276.581C152.271 272.148 150.5 265.995 150.5 259.172C150.5 252.35 152.271 246.196 155.107 241.764C157.948 237.326 161.811 234.672 166 234.672C170.189 234.672 174.052 237.326 176.893 241.764C179.729 246.196 181.5 252.35 181.5 259.172Z" stroke="#252525"/>
<path d="M166 234.172C166 234.172 159.25 252.498 166 259.172C172.75 265.847 166 284.172 166 284.172" stroke="#252525"/>
<path d="M231.5 259.172C231.5 265.995 229.729 272.148 226.893 276.581C224.052 281.018 220.189 283.672 216 283.672C211.811 283.672 207.948 281.018 205.107 276.581C202.271 272.148 200.5 265.995 200.5 259.172C200.5 252.35 202.271 246.196 205.107 241.764C207.948 237.326 211.811 234.672 216 234.672C220.189 234.672 224.052 237.326 226.893 241.764C229.729 246.196 231.5 252.35 231.5 259.172Z" stroke="#252525"/>
<path d="M216 234.172C216 234.172 209.25 252.498 216 259.172C222.75 265.847 216 284.172 216 284.172" stroke="#252525"/>
<path d="M281.5 259.172C281.5 265.995 279.729 272.148 276.893 276.581C274.052 281.018 270.189 283.672 266 283.672C261.811 283.672 257.948 281.018 255.107 276.581C252.271 272.148 250.5 265.995 250.5 259.172C250.5 252.35 252.271 246.196 255.107 241.764C257.948 237.326 261.811 234.672 266 234.672C270.189 234.672 274.052 237.326 276.893 241.764C279.729 246.196 281.5 252.35 281.5 259.172Z" stroke="#252525"/>
<path d="M266 234.172C266 234.172 259.25 252.498 266 259.172C272.75 265.847 266 284.172 266 284.172" stroke="#252525"/>
</svg>
