<svg width="282" height="285" viewBox="0 0 282 285" fill="none" xmlns="http://www.w3.org/2000/svg">
<path fill-rule="evenodd" clip-rule="evenodd" d="M215.648 259.528C217.224 261.086 218.042 263.355 218.351 265.953C218.66 268.547 218.455 271.414 218.037 274.098C217.62 276.779 216.992 279.257 216.469 281.066C216.207 281.97 215.972 282.705 215.803 283.214C215.718 283.468 215.649 283.666 215.602 283.799C215.579 283.866 215.561 283.916 215.549 283.95L215.535 283.988L215.532 283.997L215.531 283.999L215.531 284L216 284.172C207.163 284.172 200 272.98 200 259.172C200 245.646 206.876 234.628 215.464 234.186L215.454 234.214C215.406 234.352 215.335 234.555 215.249 234.815C215.076 235.334 214.836 236.083 214.57 237.001C214.039 238.837 213.401 241.358 212.975 244.093C212.549 246.824 212.332 249.79 212.656 252.51C212.979 255.225 213.849 257.749 215.648 259.528ZM216 234.172C215.821 234.172 215.642 234.177 215.464 234.186C215.484 234.13 215.499 234.087 215.51 234.056L215.525 234.015L215.529 234.004L215.53 234.001L215.531 234C215.531 234 215.531 234 216 234.172ZM216.536 284.159L216.546 284.131C216.594 283.993 216.665 283.79 216.751 283.53C216.924 283.01 217.164 282.262 217.43 281.344C217.961 279.508 218.599 276.987 219.025 274.252C219.451 271.521 219.668 268.554 219.344 265.835C219.021 263.12 218.151 260.596 216.352 258.817C214.776 257.259 213.958 254.99 213.649 252.391C213.34 249.797 213.545 246.931 213.963 244.247C214.38 241.566 215.008 239.088 215.531 237.279C215.793 236.375 216.028 235.64 216.197 235.131C216.282 234.877 216.351 234.679 216.398 234.546C216.421 234.479 216.439 234.428 216.451 234.395L216.465 234.357L216.468 234.348L216.469 234.346L216.469 234.345L216 234.172C224.837 234.172 232 245.365 232 259.172C232 272.699 225.124 283.717 216.536 284.159ZM216.536 284.159C216.358 284.168 216.179 284.172 216 284.172C216.469 284.345 216.469 284.345 216.469 284.345L216.47 284.344L216.471 284.341L216.475 284.33L216.49 284.289C216.501 284.258 216.516 284.214 216.536 284.159ZM266.536 284.159C266.358 284.168 266.179 284.172 266 284.172L265.531 284L265.531 283.999L265.532 283.997L265.535 283.988L265.549 283.95C265.561 283.916 265.579 283.866 265.602 283.799C265.649 283.666 265.718 283.468 265.803 283.214C265.972 282.705 266.207 281.97 266.469 281.066C266.992 279.257 267.62 276.779 268.037 274.098C268.455 271.414 268.66 268.547 268.351 265.953C268.042 263.355 267.224 261.086 265.648 259.528C263.849 257.749 262.979 255.225 262.656 252.51C262.332 249.79 262.549 246.824 262.975 244.093C263.401 241.358 264.039 238.837 264.57 237.001C264.836 236.083 265.076 235.334 265.249 234.815C265.335 234.555 265.406 234.352 265.454 234.214L265.464 234.186C265.642 234.177 265.821 234.172 266 234.172L266.469 234.345L266.469 234.346L266.468 234.348L266.465 234.357L266.451 234.395C266.439 234.428 266.421 234.479 266.398 234.546C266.351 234.679 266.282 234.877 266.197 235.131C266.028 235.64 265.793 236.375 265.531 237.279C265.008 239.088 264.38 241.566 263.963 244.247C263.545 246.931 263.34 249.797 263.649 252.391C263.958 254.99 264.776 257.259 266.352 258.817C268.151 260.596 269.021 263.12 269.344 265.835C269.668 268.554 269.451 271.521 269.025 274.252C268.599 276.987 267.961 279.508 267.43 281.344C267.164 282.262 266.924 283.01 266.751 283.53C266.665 283.79 266.594 283.993 266.546 284.131L266.536 284.159ZM266 234.172C265.531 234 265.531 234 265.531 234L265.53 234.001L265.529 234.004L265.525 234.015L265.51 234.056C265.499 234.087 265.484 234.13 265.464 234.186C256.876 234.628 250 245.646 250 259.172C250 272.98 257.163 284.172 266 284.172C266.469 284.345 266.469 284.345 266.469 284.345L266.47 284.344L266.471 284.341L266.475 284.33L266.49 284.289L266.515 284.218L266.536 284.159C275.124 283.717 282 272.699 282 259.172C282 245.365 274.837 234.172 266 234.172ZM66.536 284.159C66.3581 284.168 66.1794 284.172 66 284.172L65.5308 284L65.531 283.999L65.5317 283.997L65.5351 283.988L65.5488 283.95C65.5609 283.916 65.579 283.866 65.6025 283.799C65.6494 283.666 65.7177 283.468 65.8025 283.214C65.9721 282.705 66.2074 281.97 66.4689 281.066C66.9924 279.257 67.6196 276.779 68.0372 274.098C68.4554 271.414 68.6601 268.547 68.3512 265.953C68.0417 263.355 67.2238 261.086 65.6484 259.528C63.8488 257.749 62.9792 255.225 62.6559 252.51C62.332 249.79 62.5491 246.824 62.9747 244.093C63.4008 241.358 64.0393 238.837 64.5705 237.001C64.8363 236.083 65.0756 235.334 65.2488 234.815C65.3354 234.555 65.4055 234.352 65.4542 234.214L65.464 234.186C65.6419 234.177 65.8206 234.172 66 234.172L66.4692 234.345L66.469 234.346L66.4683 234.348L66.4649 234.357L66.4512 234.395C66.4391 234.428 66.421 234.479 66.3975 234.546C66.3506 234.679 66.2823 234.877 66.1975 235.131C66.0279 235.64 65.7926 236.375 65.5311 237.279C65.0076 239.088 64.3804 241.566 63.9628 244.247C63.5446 246.931 63.3399 249.797 63.6488 252.391C63.9583 254.99 64.7762 257.259 66.3516 258.817C68.1512 260.596 69.0208 263.12 69.3441 265.835C69.668 268.554 69.4509 271.521 69.0253 274.252C68.5992 276.987 67.9607 279.508 67.4295 281.344C67.1637 282.262 66.9244 283.01 66.7512 283.53C66.6646 283.79 66.5945 283.993 66.5458 284.131L66.536 284.159ZM66 234.172C65.5308 234 65.5308 234 65.5307 234L65.5304 234.001L65.5293 234.004L65.5253 234.015L65.5104 234.056C65.4993 234.087 65.4836 234.13 65.464 234.186C56.8756 234.628 50 245.646 50 259.172C50 272.98 57.1634 284.172 66 284.172C66.4692 284.345 66.4692 284.345 66.4693 284.345L66.4696 284.344L66.4707 284.341L66.4747 284.33L66.4896 284.289C66.5007 284.258 66.5164 284.214 66.536 284.159C75.1244 283.717 82 272.699 82 259.172C82 245.365 74.8366 234.172 66 234.172ZM166.536 284.159C166.358 284.168 166.179 284.172 166 284.172L165.531 284L165.531 283.999L165.532 283.997L165.535 283.988L165.549 283.95C165.561 283.916 165.579 283.866 165.602 283.799C165.649 283.666 165.718 283.468 165.803 283.214C165.972 282.705 166.207 281.97 166.469 281.066C166.992 279.257 167.62 276.779 168.037 274.098C168.455 271.414 168.66 268.547 168.351 265.953C168.042 263.355 167.224 261.086 165.648 259.528C163.849 257.749 162.979 255.225 162.656 252.51C162.332 249.79 162.549 246.824 162.975 244.093C163.401 241.358 164.039 238.837 164.57 237.001C164.836 236.083 165.076 235.334 165.249 234.815C165.335 234.555 165.406 234.352 165.454 234.214L165.464 234.186C165.642 234.177 165.821 234.172 166 234.172L166.469 234.345L166.469 234.346L166.468 234.348L166.465 234.357L166.451 234.395C166.439 234.428 166.421 234.479 166.398 234.546C166.351 234.679 166.282 234.877 166.197 235.131C166.028 235.64 165.793 236.375 165.531 237.279C165.008 239.088 164.38 241.566 163.963 244.247C163.545 246.931 163.34 249.797 163.649 252.391C163.958 254.99 164.776 257.259 166.352 258.817C168.151 260.596 169.021 263.12 169.344 265.835C169.668 268.554 169.451 271.521 169.025 274.252C168.599 276.987 167.961 279.508 167.43 281.344C167.164 282.262 166.924 283.01 166.751 283.53C166.665 283.79 166.594 283.993 166.546 284.131L166.536 284.159ZM166 234.172C165.531 234 165.531 234 165.531 234L165.53 234.001L165.529 234.004L165.525 234.015L165.51 234.056C165.499 234.087 165.484 234.13 165.464 234.186C156.876 234.628 150 245.646 150 259.172C150 272.98 157.163 284.172 166 284.172L166.375 284.31C166.469 284.345 166.469 284.345 166.469 284.345L166.47 284.344L166.471 284.341L166.475 284.33L166.49 284.289C166.501 284.258 166.516 284.214 166.536 284.159C175.124 283.717 182 272.699 182 259.172C182 245.365 174.837 234.172 166 234.172ZM16.536 284.159C16.3581 284.168 16.1794 284.172 16 284.172L15.5308 284L15.531 283.999L15.5317 283.997L15.5351 283.988L15.5488 283.95C15.5609 283.916 15.579 283.866 15.6025 283.799C15.6494 283.666 15.7177 283.468 15.8025 283.214C15.9721 282.705 16.2073 281.97 16.4689 281.066C16.9924 279.257 17.6196 276.779 18.0372 274.098C18.4554 271.414 18.6601 268.547 18.3512 265.953C18.0417 263.355 17.2238 261.086 15.6484 259.528C13.8488 257.749 12.9792 255.225 12.6559 252.51C12.332 249.79 12.5491 246.824 12.9747 244.093C13.4008 241.358 14.0393 238.837 14.5705 237.001C14.8363 236.083 15.0756 235.334 15.2488 234.815C15.3354 234.555 15.4055 234.352 15.4542 234.214L15.464 234.186C15.6419 234.177 15.8206 234.172 16 234.172L16.4692 234.345L16.469 234.346L16.4683 234.348L16.4649 234.357L16.4512 234.395C16.4391 234.428 16.421 234.479 16.3975 234.546C16.3506 234.679 16.2823 234.877 16.1975 235.131C16.0279 235.64 15.7927 236.375 15.5311 237.279C15.0076 239.088 14.3804 241.566 13.9628 244.247C13.5446 246.931 13.3399 249.797 13.6488 252.391C13.9583 254.99 14.7762 257.259 16.3516 258.817C18.1512 260.596 19.0208 263.12 19.3441 265.835C19.668 268.554 19.4509 271.521 19.0253 274.252C18.5992 276.987 17.9607 279.508 17.4295 281.344C17.1637 282.262 16.9244 283.01 16.7512 283.53C16.6646 283.79 16.5945 283.993 16.5458 284.131L16.536 284.159ZM16 234.172C15.5308 234 15.5308 234 15.5307 234L15.5304 234.001L15.5293 234.004L15.5253 234.015L15.5104 234.056C15.4993 234.087 15.4836 234.13 15.464 234.186C6.87555 234.628 0 245.646 0 259.172C0 272.98 7.16344 284.172 16 284.172C16.4692 284.345 16.4692 284.345 16.4693 284.345L16.4696 284.344L16.4707 284.341L16.4747 284.33L16.4896 284.289C16.5007 284.258 16.5164 284.214 16.536 284.159C25.1244 283.717 32 272.699 32 259.172C32 245.365 24.8366 234.172 16 234.172ZM116.536 284.159C116.358 284.168 116.179 284.172 116 284.172L115.531 284L115.531 283.999L115.532 283.997L115.535 283.988L115.549 283.95C115.561 283.916 115.579 283.866 115.602 283.799C115.649 283.666 115.718 283.468 115.803 283.214C115.972 282.705 116.207 281.97 116.469 281.066C116.992 279.257 117.62 276.779 118.037 274.098C118.455 271.414 118.66 268.547 118.351 265.953C118.042 263.355 117.224 261.086 115.648 259.528C113.849 257.749 112.979 255.225 112.656 252.51C112.332 249.79 112.549 246.824 112.975 244.093C113.401 241.358 114.039 238.837 114.57 237.001C114.836 236.083 115.076 235.334 115.249 234.815C115.335 234.555 115.406 234.352 115.454 234.214C115.458 234.204 115.461 234.195 115.464 234.186C115.642 234.177 115.821 234.172 116 234.172L116.469 234.345L116.469 234.346L116.468 234.348L116.465 234.357L116.451 234.395C116.439 234.428 116.421 234.479 116.398 234.546C116.351 234.679 116.282 234.877 116.197 235.131C116.028 235.64 115.793 236.375 115.531 237.279C115.008 239.088 114.38 241.566 113.963 244.247C113.545 246.931 113.34 249.797 113.649 252.391C113.958 254.99 114.776 257.259 116.352 258.817C118.151 260.596 119.021 263.12 119.344 265.835C119.668 268.554 119.451 271.521 119.025 274.252C118.599 276.987 117.961 279.508 117.43 281.344C117.164 282.262 116.924 283.01 116.751 283.53C116.665 283.79 116.594 283.993 116.546 284.131C116.542 284.14 116.539 284.15 116.536 284.159ZM116 234.172C115.531 234 115.531 234 115.531 234L115.53 234.001L115.529 234.004L115.525 234.015L115.51 234.056C115.499 234.087 115.484 234.13 115.464 234.186C106.876 234.628 100 245.646 100 259.172C100 272.98 107.163 284.172 116 284.172C116.469 284.345 116.469 284.345 116.469 284.345L116.47 284.344L116.471 284.341L116.475 284.33L116.49 284.289C116.501 284.258 116.516 284.214 116.536 284.159C125.124 283.717 132 272.699 132 259.172C132 245.365 124.837 234.172 116 234.172Z" fill="#252525"/>
<path fill-rule="evenodd" clip-rule="evenodd" d="M115.648 25.528C117.224 27.0857 118.042 29.3552 118.351 31.9535C118.66 34.5475 118.455 37.4141 118.037 40.0983C117.62 42.779 116.992 45.2567 116.469 47.0657C116.207 47.9697 115.972 48.7052 115.803 49.2138C115.718 49.4681 115.649 49.6656 115.602 49.7991C115.579 49.8658 115.561 49.9164 115.549 49.9502L115.535 49.9879L115.532 49.9971L115.531 49.9992L115.531 49.9996L116 50.1724C107.163 50.1724 100 38.9795 100 25.1724C100 11.6456 106.876 0.627944 115.464 0.18619C115.461 0.195129 115.458 0.204377 115.454 0.213933C115.406 0.352218 115.335 0.554941 115.249 0.814772C115.076 1.33437 114.836 2.08272 114.57 3.00112C114.039 4.8367 113.401 7.35759 112.975 10.0926C112.549 12.8242 112.332 15.7904 112.656 18.5096C112.979 21.2245 113.849 23.7486 115.648 25.528ZM116 0.172422C115.531 -0.000394876 115.531 -0.000223423 115.531 1.77222e-05L115.53 0.000849177L115.529 0.00376329L115.525 0.014559L115.51 0.0557208C115.499 0.0867667 115.484 0.130452 115.464 0.18619C115.642 0.177036 115.821 0.172422 116 0.172422ZM116 0.172422L116.469 0.345244L116.469 0.345668L116.468 0.347762L116.465 0.3569L116.451 0.39467C116.439 0.428401 116.421 0.479077 116.398 0.545783C116.351 0.679202 116.282 0.876715 116.197 1.13102C116.028 1.63968 115.793 2.37518 115.531 3.2791C115.008 5.08818 114.38 7.56587 113.963 10.2466C113.545 12.9307 113.34 15.7974 113.649 18.3914C113.958 20.9897 114.776 23.2592 116.352 24.8169C118.151 26.5963 119.021 29.1203 119.344 31.8352C119.668 34.5545 119.451 37.5207 119.025 40.2522C118.599 42.9873 117.961 45.5081 117.43 47.3437C117.164 48.2621 116.924 49.0105 116.751 49.5301C116.665 49.7899 116.594 49.9926 116.546 50.1309C116.542 50.1405 116.539 50.1497 116.536 50.1587C116.358 50.1678 116.179 50.1724 116 50.1724C116.469 50.3452 116.469 50.3451 116.469 50.3448L116.47 50.344L116.471 50.3411L116.475 50.3303L116.49 50.2891C116.501 50.2581 116.516 50.2144 116.536 50.1587C125.124 49.7169 132 38.6992 132 25.1724C132 11.3653 124.837 0.172422 116 0.172422Z" fill="#252525"/>
<path fill-rule="evenodd" clip-rule="evenodd" d="M165.648 25.528C167.224 27.0857 168.042 29.3552 168.351 31.9535C168.66 34.5475 168.455 37.4141 168.037 40.0983C167.62 42.779 166.992 45.2567 166.469 47.0657C166.207 47.9697 165.972 48.7052 165.803 49.2138C165.718 49.4681 165.649 49.6656 165.602 49.7991C165.579 49.8658 165.561 49.9164 165.549 49.9502L165.535 49.9879L165.532 49.9971L165.531 49.9992L165.531 49.9996L166 50.1724C157.163 50.1724 150 38.9795 150 25.1724C150 11.6456 156.876 0.627944 165.464 0.18619C165.461 0.195129 165.458 0.204377 165.454 0.213933C165.406 0.352218 165.335 0.554941 165.249 0.814772C165.076 1.33437 164.836 2.08272 164.57 3.00112C164.039 4.8367 163.401 7.35759 162.975 10.0926C162.549 12.8242 162.332 15.7904 162.656 18.5096C162.979 21.2245 163.849 23.7486 165.648 25.528ZM166 0.172422C165.531 -0.000394876 165.531 -0.000223423 165.531 1.77222e-05L165.53 0.000849177L165.529 0.00376329L165.525 0.014559L165.51 0.0557208C165.499 0.0867667 165.484 0.130452 165.464 0.18619C165.642 0.177036 165.821 0.172422 166 0.172422ZM166 0.172422L166.469 0.345244L166.469 0.345668L166.468 0.347762L166.465 0.3569L166.451 0.39467C166.439 0.428401 166.421 0.479077 166.398 0.545783C166.351 0.679202 166.282 0.876715 166.197 1.13102C166.028 1.63968 165.793 2.37518 165.531 3.2791C165.008 5.08818 164.38 7.56587 163.963 10.2466C163.545 12.9307 163.34 15.7974 163.649 18.3914C163.958 20.9897 164.776 23.2592 166.352 24.8169C168.151 26.5963 169.021 29.1203 169.344 31.8352C169.668 34.5545 169.451 37.5207 169.025 40.2522C168.599 42.9873 167.961 45.5081 167.43 47.3437C167.164 48.2621 166.924 49.0105 166.751 49.5301C166.665 49.7899 166.594 49.9926 166.546 50.1309C166.542 50.1405 166.539 50.1497 166.536 50.1587C166.358 50.1678 166.179 50.1724 166 50.1724C166.469 50.3452 166.469 50.3451 166.469 50.3448L166.47 50.344L166.471 50.3411L166.475 50.3303L166.49 50.2891C166.501 50.2581 166.516 50.2144 166.536 50.1587C175.124 49.7169 182 38.6992 182 25.1724C182 11.3653 174.837 0.172422 166 0.172422Z" fill="#252525"/>
<path fill-rule="evenodd" clip-rule="evenodd" d="M65.6484 25.528C67.2238 27.0857 68.0417 29.3552 68.3512 31.9535C68.6601 34.5475 68.4554 37.4141 68.0372 40.0983C67.6196 42.779 66.9924 45.2567 66.4689 47.0657C66.2073 47.9697 65.9721 48.7052 65.8025 49.2138C65.7177 49.4681 65.6494 49.6656 65.6025 49.7991C65.579 49.8658 65.5609 49.9164 65.5488 49.9502L65.5351 49.9879L65.5317 49.9971L65.531 49.9992L65.5308 49.9996L66 50.1724C57.1634 50.1724 50 38.9795 50 25.1724C50 11.6456 56.8756 0.627944 65.464 0.18619C65.4608 0.195129 65.4575 0.204377 65.4542 0.213933C65.4055 0.352218 65.3354 0.554941 65.2488 0.814772C65.0756 1.33437 64.8363 2.08272 64.5705 3.00112C64.0393 4.8367 63.4008 7.35759 62.9747 10.0926C62.5491 12.8242 62.332 15.7904 62.6559 18.5096C62.9792 21.2245 63.8488 23.7486 65.6484 25.528ZM66 0.172422C65.5308 -0.000394876 65.5308 -0.000223423 65.5307 1.77222e-05L65.5304 0.000849177L65.5293 0.00376329L65.5253 0.014559L65.5104 0.0557208C65.4993 0.0867667 65.4836 0.130452 65.464 0.18619C65.6419 0.177036 65.8206 0.172422 66 0.172422ZM66 0.172422L66.4692 0.345244L66.469 0.345668L66.4683 0.347762L66.4649 0.3569L66.4512 0.39467C66.4391 0.428401 66.421 0.479077 66.3975 0.545783C66.3506 0.679202 66.2823 0.876715 66.1975 1.13102C66.0279 1.63968 65.7927 2.37518 65.5311 3.2791C65.0076 5.08818 64.3804 7.56587 63.9628 10.2466C63.5446 12.9307 63.3399 15.7974 63.6488 18.3914C63.9583 20.9897 64.7762 23.2592 66.3516 24.8169C68.1512 26.5963 69.0208 29.1203 69.3441 31.8352C69.668 34.5545 69.4509 37.5207 69.0253 40.2522C68.5992 42.9873 67.9607 45.5081 67.4295 47.3437C67.1637 48.2621 66.9244 49.0105 66.7512 49.5301C66.6646 49.7899 66.5945 49.9926 66.5458 50.1309C66.5425 50.1405 66.5392 50.1497 66.536 50.1587C66.3581 50.1678 66.1794 50.1724 66 50.1724C66.4692 50.3452 66.4692 50.3451 66.4693 50.3448L66.4696 50.344L66.4707 50.3411L66.4747 50.3303L66.4896 50.2891C66.5007 50.2581 66.5164 50.2144 66.536 50.1587C75.1244 49.7169 82 38.6992 82 25.1724C82 11.3653 74.8366 0.172422 66 0.172422Z" fill="#252525"/>
<path fill-rule="evenodd" clip-rule="evenodd" d="M15.6484 25.528C17.2238 27.0857 18.0417 29.3552 18.3512 31.9535C18.6601 34.5475 18.4554 37.4141 18.0372 40.0983C17.6196 42.779 16.9924 45.2567 16.4689 47.0657C16.2073 47.9697 15.9721 48.7052 15.8025 49.2138C15.7177 49.4681 15.6494 49.6656 15.6025 49.7991C15.579 49.8658 15.5609 49.9164 15.5488 49.9502L15.5351 49.9879L15.5317 49.9971L15.531 49.9992L15.5308 49.9996L16 50.1724C7.16344 50.1724 0 38.9795 0 25.1724C0 11.6456 6.87555 0.627944 15.464 0.18619C15.4608 0.195129 15.4575 0.204377 15.4542 0.213933C15.4055 0.352218 15.3354 0.554941 15.2488 0.814772C15.0756 1.33437 14.8363 2.08272 14.5705 3.00112C14.0393 4.8367 13.4008 7.35759 12.9747 10.0926C12.5491 12.8242 12.332 15.7904 12.6559 18.5096C12.9792 21.2245 13.8488 23.7486 15.6484 25.528ZM16 0.172422C15.5308 -0.000394876 15.5308 -0.000223423 15.5307 1.77222e-05L15.5304 0.000849177L15.5293 0.00376329L15.5253 0.014559L15.5104 0.0557208C15.4993 0.0867667 15.4836 0.130452 15.464 0.18619C15.6419 0.177036 15.8206 0.172422 16 0.172422ZM16 0.172422L16.4692 0.345244L16.469 0.345668L16.4683 0.347762L16.4649 0.3569L16.4512 0.39467C16.4391 0.428401 16.421 0.479077 16.3975 0.545783C16.3506 0.679202 16.2823 0.876715 16.1975 1.13102C16.0279 1.63968 15.7927 2.37518 15.5311 3.2791C15.0076 5.08818 14.3804 7.56587 13.9628 10.2466C13.5446 12.9307 13.3399 15.7974 13.6488 18.3914C13.9583 20.9897 14.7762 23.2592 16.3516 24.8169C18.1512 26.5963 19.0208 29.1203 19.3441 31.8352C19.668 34.5545 19.4509 37.5207 19.0253 40.2522C18.5992 42.9873 17.9607 45.5081 17.4295 47.3437C17.1637 48.2621 16.9244 49.0105 16.7512 49.5301C16.6646 49.7899 16.5945 49.9926 16.5458 50.1309C16.5425 50.1405 16.5392 50.1497 16.536 50.1587C16.3581 50.1678 16.1794 50.1724 16 50.1724C16.4692 50.3452 16.4692 50.3451 16.4693 50.3448L16.4696 50.344L16.4707 50.3411L16.4747 50.3303L16.4896 50.2891C16.5007 50.2581 16.5164 50.2144 16.536 50.1587C25.1244 49.7169 32 38.6992 32 25.1724C32 11.3653 24.8366 0.172422 16 0.172422Z" fill="#252525"/>
<path d="M231.5 25.1724C231.5 31.995 229.729 38.1483 226.893 42.5805C224.052 47.0183 220.189 49.6724 216 49.6724C211.811 49.6724 207.948 47.0183 205.107 42.5805C202.271 38.1483 200.5 31.995 200.5 25.1724C200.5 18.3498 202.271 12.1964 205.107 7.76422C207.948 3.32644 211.811 0.672363 216 0.672363C220.189 0.672363 224.052 3.32644 226.893 7.76422C229.729 12.1964 231.5 18.3498 231.5 25.1724Z" stroke="#252525"/>
<path d="M216 0.172363C216 0.172363 209.25 18.4982 216 25.1724C222.75 31.8466 216 50.1724 216 50.1724" stroke="#252525"/>
<path d="M281.5 25.1724C281.5 31.995 279.729 38.1483 276.893 42.5805C274.052 47.0183 270.189 49.6724 266 49.6724C261.811 49.6724 257.948 47.0183 255.107 42.5805C252.271 38.1483 250.5 31.995 250.5 25.1724C250.5 18.3498 252.271 12.1964 255.107 7.76422C257.948 3.32644 261.811 0.672363 266 0.672363C270.189 0.672363 274.052 3.32644 276.893 7.76422C279.729 12.1964 281.5 18.3498 281.5 25.1724Z" stroke="#252525"/>
<path d="M266 0.172363C266 0.172363 259.25 18.4982 266 25.1724C272.75 31.8466 266 50.1724 266 50.1724" stroke="#252525"/>
<path fill-rule="evenodd" clip-rule="evenodd" d="M165.648 142.528C167.224 144.086 168.042 146.355 168.351 148.953C168.66 151.547 168.455 154.414 168.037 157.098C167.62 159.779 166.992 162.257 166.469 164.066C166.207 164.97 165.972 165.705 165.803 166.214C165.718 166.468 165.649 166.666 165.602 166.799C165.579 166.866 165.561 166.916 165.549 166.95L165.535 166.988L165.532 166.997L165.531 166.999L165.531 167L166 167.172C157.163 167.172 150 155.98 150 142.172C150 128.646 156.876 117.628 165.464 117.186C165.461 117.195 165.458 117.204 165.454 117.214C165.406 117.352 165.335 117.555 165.249 117.815C165.076 118.334 164.836 119.083 164.57 120.001C164.039 121.837 163.401 124.358 162.975 127.093C162.549 129.824 162.332 132.79 162.656 135.51C162.979 138.225 163.849 140.749 165.648 142.528ZM166 117.172C165.531 117 165.531 117 165.531 117L165.53 117.001L165.529 117.004L165.525 117.015L165.51 117.056C165.499 117.087 165.484 117.13 165.464 117.186C165.642 117.177 165.821 117.172 166 117.172ZM166 117.172L166.469 117.345L166.469 117.346L166.468 117.348L166.465 117.357L166.451 117.395C166.439 117.428 166.421 117.479 166.398 117.546C166.351 117.679 166.282 117.877 166.197 118.131C166.028 118.64 165.793 119.375 165.531 120.279C165.008 122.088 164.38 124.566 163.963 127.247C163.545 129.931 163.34 132.797 163.649 135.391C163.958 137.99 164.776 140.259 166.352 141.817C168.151 143.596 169.021 146.12 169.344 148.835C169.668 151.554 169.451 154.521 169.025 157.252C168.599 159.987 167.961 162.508 167.43 164.344C167.164 165.262 166.924 166.01 166.751 166.53C166.665 166.79 166.594 166.993 166.546 167.131C166.542 167.14 166.539 167.15 166.536 167.159C166.358 167.168 166.179 167.172 166 167.172C166.469 167.345 166.469 167.345 166.469 167.345L166.47 167.344L166.471 167.341L166.475 167.33L166.49 167.289C166.501 167.258 166.516 167.214 166.536 167.159C175.124 166.717 182 155.699 182 142.172C182 128.365 174.837 117.172 166 117.172Z" fill="#252525"/>
<path fill-rule="evenodd" clip-rule="evenodd" d="M215.648 142.528C217.224 144.086 218.042 146.355 218.351 148.953C218.66 151.547 218.455 154.414 218.037 157.098C217.62 159.779 216.992 162.257 216.469 164.066C216.207 164.97 215.972 165.705 215.803 166.214C215.718 166.468 215.649 166.666 215.602 166.799C215.579 166.866 215.561 166.916 215.549 166.95L215.535 166.988L215.532 166.997L215.531 166.999L215.531 167L216 167.172C207.163 167.172 200 155.98 200 142.172C200 128.646 206.876 117.628 215.464 117.186C215.461 117.195 215.458 117.204 215.454 117.214C215.406 117.352 215.335 117.555 215.249 117.815C215.076 118.334 214.836 119.083 214.57 120.001C214.039 121.837 213.401 124.358 212.975 127.093C212.549 129.824 212.332 132.79 212.656 135.51C212.979 138.225 213.849 140.749 215.648 142.528ZM216 117.172C215.531 117 215.531 117 215.531 117L215.53 117.001L215.529 117.004L215.525 117.015L215.51 117.056C215.499 117.087 215.484 117.13 215.464 117.186C215.642 117.177 215.821 117.172 216 117.172ZM216 117.172L216.469 117.345L216.469 117.346L216.468 117.348L216.465 117.357L216.451 117.395C216.439 117.428 216.421 117.479 216.398 117.546C216.351 117.679 216.282 117.877 216.197 118.131C216.028 118.64 215.793 119.375 215.531 120.279C215.008 122.088 214.38 124.566 213.963 127.247C213.545 129.931 213.34 132.797 213.649 135.391C213.958 137.99 214.776 140.259 216.352 141.817C218.151 143.596 219.021 146.12 219.344 148.835C219.668 151.554 219.451 154.521 219.025 157.252C218.599 159.987 217.961 162.508 217.43 164.344C217.164 165.262 216.924 166.01 216.751 166.53C216.665 166.79 216.594 166.993 216.546 167.131C216.542 167.14 216.539 167.15 216.536 167.159C216.358 167.168 216.179 167.172 216 167.172C216.469 167.345 216.469 167.345 216.469 167.345L216.47 167.344L216.471 167.341L216.475 167.33L216.49 167.289C216.501 167.258 216.516 167.214 216.536 167.159C225.124 166.717 232 155.699 232 142.172C232 128.365 224.837 117.172 216 117.172Z" fill="#252525"/>
<path fill-rule="evenodd" clip-rule="evenodd" d="M15.6484 142.528C17.2238 144.086 18.0417 146.355 18.3512 148.953C18.6601 151.547 18.4554 154.414 18.0372 157.098C17.6196 159.779 16.9924 162.257 16.4689 164.066C16.2073 164.97 15.9721 165.705 15.8025 166.214C15.7177 166.468 15.6494 166.666 15.6025 166.799C15.579 166.866 15.5609 166.916 15.5488 166.95L15.5351 166.988L15.5317 166.997L15.531 166.999L15.5308 167L16 167.172C7.16344 167.172 0 155.98 0 142.172C0 128.646 6.87555 117.628 15.464 117.186C15.4608 117.195 15.4575 117.204 15.4542 117.214C15.4055 117.352 15.3354 117.555 15.2488 117.815C15.0756 118.334 14.8363 119.083 14.5705 120.001C14.0393 121.837 13.4008 124.358 12.9747 127.093C12.5491 129.824 12.332 132.79 12.6559 135.51C12.9792 138.225 13.8488 140.749 15.6484 142.528ZM16 117.172C15.5308 117 15.5308 117 15.5307 117L15.5304 117.001L15.5293 117.004L15.5253 117.015L15.5104 117.056C15.4993 117.087 15.4836 117.13 15.464 117.186C15.6419 117.177 15.8206 117.172 16 117.172ZM16 117.172L16.4692 117.345L16.469 117.346L16.4683 117.348L16.4649 117.357L16.4512 117.395C16.4391 117.428 16.421 117.479 16.3975 117.546C16.3506 117.679 16.2823 117.877 16.1975 118.131C16.0279 118.64 15.7927 119.375 15.5311 120.279C15.0076 122.088 14.3804 124.566 13.9628 127.247C13.5446 129.931 13.3399 132.797 13.6488 135.391C13.9583 137.99 14.7762 140.259 16.3516 141.817C18.1512 143.596 19.0208 146.12 19.3441 148.835C19.668 151.554 19.4509 154.521 19.0253 157.252C18.5992 159.987 17.9607 162.508 17.4295 164.344C17.1637 165.262 16.9244 166.01 16.7512 166.53C16.6646 166.79 16.5945 166.993 16.5458 167.131C16.5425 167.14 16.5392 167.15 16.536 167.159C16.3581 167.168 16.1794 167.172 16 167.172C16.4692 167.345 16.4692 167.345 16.4693 167.345L16.4696 167.344L16.4707 167.341L16.4747 167.33L16.4896 167.289C16.5007 167.258 16.5164 167.214 16.536 167.159C25.1244 166.717 32 155.699 32 142.172C32 128.365 24.8366 117.172 16 117.172Z" fill="#252525"/>
<path fill-rule="evenodd" clip-rule="evenodd" d="M115.648 142.528C117.224 144.086 118.042 146.355 118.351 148.953C118.66 151.547 118.455 154.414 118.037 157.098C117.62 159.779 116.992 162.257 116.469 164.066C116.207 164.97 115.972 165.705 115.803 166.214C115.718 166.468 115.649 166.666 115.602 166.799C115.579 166.866 115.561 166.916 115.549 166.95L115.535 166.988L115.532 166.997L115.531 166.999L115.531 167L116 167.172C107.163 167.172 100 155.98 100 142.172C100 128.646 106.876 117.628 115.464 117.186C115.461 117.195 115.458 117.204 115.454 117.214C115.406 117.352 115.335 117.555 115.249 117.815C115.076 118.334 114.836 119.083 114.57 120.001C114.039 121.837 113.401 124.358 112.975 127.093C112.549 129.824 112.332 132.79 112.656 135.51C112.979 138.225 113.849 140.749 115.648 142.528ZM116 117.172C115.531 117 115.531 117 115.531 117L115.53 117.001L115.529 117.004L115.525 117.015L115.51 117.056C115.499 117.087 115.484 117.13 115.464 117.186C115.642 117.177 115.821 117.172 116 117.172ZM116 117.172L116.469 117.345L116.469 117.346L116.468 117.348L116.465 117.357L116.451 117.395C116.439 117.428 116.421 117.479 116.398 117.546C116.351 117.679 116.282 117.877 116.197 118.131C116.028 118.64 115.793 119.375 115.531 120.279C115.008 122.088 114.38 124.566 113.963 127.247C113.545 129.931 113.34 132.797 113.649 135.391C113.958 137.99 114.776 140.259 116.352 141.817C118.151 143.596 119.021 146.12 119.344 148.835C119.668 151.554 119.451 154.521 119.025 157.252C118.599 159.987 117.961 162.508 117.43 164.344C117.164 165.262 116.924 166.01 116.751 166.53C116.665 166.79 116.594 166.993 116.546 167.131C116.542 167.14 116.539 167.15 116.536 167.159C116.358 167.168 116.179 167.172 116 167.172C116.469 167.345 116.469 167.345 116.469 167.345L116.47 167.344L116.471 167.341L116.475 167.33L116.49 167.289C116.501 167.258 116.516 167.214 116.536 167.159C125.124 166.717 132 155.699 132 142.172C132 128.365 124.837 117.172 116 117.172Z" fill="#252525"/>
<path fill-rule="evenodd" clip-rule="evenodd" d="M65.6484 142.528C67.2238 144.086 68.0417 146.355 68.3512 148.953C68.6601 151.547 68.4554 154.414 68.0372 157.098C67.6196 159.779 66.9924 162.257 66.4689 164.066C66.2073 164.97 65.9721 165.705 65.8025 166.214C65.7177 166.468 65.6494 166.666 65.6025 166.799C65.579 166.866 65.5609 166.916 65.5488 166.95L65.5351 166.988L65.5317 166.997L65.531 166.999L65.5308 167L66 167.172C57.1634 167.172 50 155.98 50 142.172C50 128.646 56.8756 117.628 65.464 117.186C65.4608 117.195 65.4575 117.204 65.4542 117.214C65.4055 117.352 65.3354 117.555 65.2488 117.815C65.0756 118.334 64.8363 119.083 64.5705 120.001C64.0393 121.837 63.4008 124.358 62.9747 127.093C62.5491 129.824 62.332 132.79 62.6559 135.51C62.9792 138.225 63.8488 140.749 65.6484 142.528ZM66 117.172C65.5308 117 65.5308 117 65.5307 117L65.5304 117.001L65.5293 117.004L65.5253 117.015L65.5104 117.056C65.4993 117.087 65.4836 117.13 65.464 117.186C65.6419 117.177 65.8206 117.172 66 117.172ZM66 117.172L66.4692 117.345L66.469 117.346L66.4683 117.348L66.4649 117.357L66.4512 117.395C66.4391 117.428 66.421 117.479 66.3975 117.546C66.3506 117.679 66.2823 117.877 66.1975 118.131C66.0279 118.64 65.7927 119.375 65.5311 120.279C65.0076 122.088 64.3804 124.566 63.9628 127.247C63.5446 129.931 63.3399 132.797 63.6488 135.391C63.9583 137.99 64.7762 140.259 66.3516 141.817C68.1512 143.596 69.0208 146.12 69.3441 148.835C69.668 151.554 69.4509 154.521 69.0253 157.252C68.5992 159.987 67.9607 162.508 67.4295 164.344C67.1637 165.262 66.9244 166.01 66.7512 166.53C66.6646 166.79 66.5945 166.993 66.5458 167.131C66.5425 167.14 66.5392 167.15 66.536 167.159C66.3581 167.168 66.1794 167.172 66 167.172C66.4692 167.345 66.4692 167.345 66.4693 167.345L66.4696 167.344L66.4707 167.341L66.4747 167.33L66.4896 167.289C66.5007 167.258 66.5164 167.214 66.536 167.159C75.1244 166.717 82 155.699 82 142.172C82 128.365 74.8366 117.172 66 117.172Z" fill="#252525"/>
<path d="M281.5 142.172C281.5 148.995 279.729 155.148 276.893 159.581C274.052 164.018 270.189 166.672 266 166.672C261.811 166.672 257.948 164.018 255.107 159.581C252.271 155.148 250.5 148.995 250.5 142.172C250.5 135.35 252.271 129.196 255.107 124.764C257.948 120.326 261.811 117.672 266 117.672C270.189 117.672 274.052 120.326 276.893 124.764C279.729 129.196 281.5 135.35 281.5 142.172Z" stroke="#252525"/>
<path d="M266 117.172C266 117.172 259.25 135.498 266 142.172C272.75 148.847 266 167.172 266 167.172" stroke="#252525"/>
</svg>
