<svg width="471" height="600" viewBox="0 0 471 600" fill="none" xmlns="http://www.w3.org/2000/svg">
<mask id="path-1-inside-1_288_156" fill="white">
<path fill-rule="evenodd" clip-rule="evenodd" d="M145.963 0C130.499 0 117.963 12.536 117.963 28V144.761L117.231 144.115C111.717 139.253 108.337 132.417 107.821 125.083L103.111 58.2036L22.4892 59.6407L9.54331 105.56C7.7315 111.987 4.46628 117.911 0 122.874V329.102V600H42.8976C57.8312 600 66.9275 583.565 58.9975 570.911L55.1621 564.79L117.963 514.807V600H157.095C167.589 600 176.095 591.493 176.095 581V565.15H252.474V581C252.474 591.493 260.98 600 271.474 600H314.944C325.437 600 333.944 591.493 333.944 581V565.15H410.746V581C410.746 591.493 419.253 600 429.746 600H471V28C471 12.536 458.464 0 443 0H145.963Z"/>
</mask>
<path d="M117.963 144.761L116.64 146.261L119.963 149.192V144.761H117.963ZM117.231 144.115L115.908 145.615L115.908 145.615L117.231 144.115ZM107.821 125.083L109.816 124.943L107.821 125.083ZM103.111 58.2036L105.106 58.0631L104.972 56.1701L103.075 56.2039L103.111 58.2036ZM22.4892 59.6407L22.4535 57.641L20.9675 57.6675L20.5642 59.098L22.4892 59.6407ZM9.54331 105.56L7.61834 105.018L9.54331 105.56ZM0 122.874L-1.48671 121.536L-2 122.107V122.874H0ZM0 600H-2V602H0V600ZM58.9975 570.911L60.6922 569.849H60.6922L58.9975 570.911ZM55.1621 564.79L53.9166 563.226L52.5185 564.338L53.4674 565.852L55.1621 564.79ZM117.963 514.807H119.963V510.659L116.717 513.242L117.963 514.807ZM117.963 600H115.963V602H117.963V600ZM176.095 565.15V563.15H174.095V565.15H176.095ZM252.474 565.15H254.474V563.15H252.474V565.15ZM333.944 565.15V563.15H331.944V565.15H333.944ZM410.746 565.15H412.746V563.15H410.746V565.15ZM471 600V602H473V600H471ZM119.963 28C119.963 13.6406 131.603 2 145.963 2V-2C129.394 -2 115.963 11.4315 115.963 28H119.963ZM119.963 144.761V28H115.963V144.761H119.963ZM115.908 145.615L116.64 146.261L119.286 143.261L118.554 142.615L115.908 145.615ZM105.826 125.224C106.379 133.081 110 140.405 115.908 145.615L118.554 142.615C113.434 138.1 110.296 131.752 109.816 124.943L105.826 125.224ZM101.116 58.3441L105.826 125.224L109.816 124.943L105.106 58.0631L101.116 58.3441ZM22.5248 61.6404L103.146 60.2033L103.075 56.2039L22.4535 57.641L22.5248 61.6404ZM11.4683 106.103L24.4141 60.1834L20.5642 59.098L7.61834 105.018L11.4683 106.103ZM1.48671 124.212C6.15809 119.021 9.57326 112.825 11.4683 106.103L7.61834 105.018C5.88974 111.149 2.77447 116.801 -1.48671 121.536L1.48671 124.212ZM2 329.102V122.874H-2V329.102H2ZM2 600V329.102H-2V600H2ZM42.8976 598H0V602H42.8976V598ZM57.3028 571.973C64.398 583.295 56.2592 598 42.8976 598V602C59.4031 602 69.4569 583.835 60.6922 569.849L57.3028 571.973ZM53.4674 565.852L57.3028 571.973L60.6922 569.849L56.8568 563.728L53.4674 565.852ZM116.717 513.242L53.9166 563.226L56.4076 566.355L119.208 516.371L116.717 513.242ZM119.963 600V514.807H115.963V600H119.963ZM157.095 598H117.963V602H157.095V598ZM174.095 581C174.095 590.389 166.484 598 157.095 598V602C168.693 602 178.095 592.598 178.095 581H174.095ZM174.095 565.15V581H178.095V565.15H174.095ZM252.474 563.15H176.095V567.15H252.474V563.15ZM254.474 581V565.15H250.474V581H254.474ZM271.474 598C262.085 598 254.474 590.389 254.474 581H250.474C250.474 592.598 259.876 602 271.474 602V598ZM314.944 598H271.474V602H314.944V598ZM331.944 581C331.944 590.389 324.333 598 314.944 598V602C326.542 602 335.944 592.598 335.944 581H331.944ZM331.944 565.15V581H335.944V565.15H331.944ZM410.746 563.15H333.944V567.15H410.746V563.15ZM412.746 581V565.15H408.746V581H412.746ZM429.746 598C420.358 598 412.746 590.389 412.746 581H408.746C408.746 592.598 418.148 602 429.746 602V598ZM471 598H429.746V602H471V598ZM469 28V600H473V28H469ZM443 2C457.36 2 469 13.6406 469 28H473C473 11.4315 459.569 -2 443 -2V2ZM145.963 2H443V-2H145.963V2Z" fill="#252525" mask="url(#path-1-inside-1_288_156)"/>
</svg>
