<svg width="479" height="609" viewBox="0 0 479 609" fill="none" xmlns="http://www.w3.org/2000/svg">
<g filter="url(#filter0_d_206_784)">
<mask id="path-1-inside-1_206_784" fill="white">
<path fill-rule="evenodd" clip-rule="evenodd" d="M149.963 0C134.499 0 121.963 12.536 121.963 28V145.002L121.216 144.342C115.711 139.48 112.338 132.649 111.823 125.322L107.111 58.3006L26.4892 59.7401L13.5416 105.742C11.7309 112.176 8.46638 118.107 4 123.079V329.65V601H46.928C61.8551 601 70.9525 584.577 63.0354 571.923L59.1621 565.732L121.963 515.665V601H161.095C171.588 601 180.095 592.493 180.095 582V566.092H256.473V582C256.473 592.493 264.98 601 275.473 601H318.943C329.437 601 337.943 592.493 337.943 582V566.092H414.746V582C414.746 592.493 423.253 601 433.746 601H475V28C475 12.536 462.464 0 447 0H149.963Z"/>
</mask>
<path d="M121.963 145.002L120.638 146.501L123.963 149.438V145.002H121.963ZM121.216 144.342L119.891 145.841L119.891 145.841L121.216 144.342ZM111.823 125.322L109.828 125.463L111.823 125.322ZM107.111 58.3006L109.106 58.1603L108.973 56.267L107.075 56.3009L107.111 58.3006ZM26.4892 59.7401L26.4535 57.7404L24.9668 57.767L24.564 59.1982L26.4892 59.7401ZM13.5416 105.742L15.4668 106.284L13.5416 105.742ZM4 123.079L2.51218 121.742L2 122.313V123.079H4ZM4 601H2V603H4V601ZM63.0354 571.923L61.3399 572.984L63.0354 571.923ZM59.1621 565.732L57.9154 564.168L56.5204 565.28L57.4666 566.792L59.1621 565.732ZM121.963 515.665H123.963V511.513L120.716 514.101L121.963 515.665ZM121.963 601H119.963V603H121.963V601ZM180.095 566.092V564.092H178.095V566.092H180.095ZM256.473 566.092H258.473V564.092H256.473V566.092ZM337.943 566.092V564.092H335.943V566.092H337.943ZM414.746 566.092H416.746V564.092H414.746V566.092ZM475 601V603H477V601H475ZM123.963 28C123.963 13.6406 135.603 2 149.963 2V-2C133.394 -2 119.963 11.4315 119.963 28H123.963ZM123.963 145.002V28H119.963V145.002H123.963ZM119.891 145.841L120.638 146.501L123.287 143.503L122.54 142.843L119.891 145.841ZM109.828 125.463C110.38 133.312 113.994 140.631 119.891 145.841L122.54 142.843C117.429 138.328 114.297 131.985 113.818 125.182L109.828 125.463ZM105.116 58.4409L109.828 125.463L113.818 125.182L109.106 58.1603L105.116 58.4409ZM26.5249 61.7398L107.146 60.3003L107.075 56.3009L26.4535 57.7404L26.5249 61.7398ZM15.4668 106.284L28.4144 60.282L24.564 59.1982L11.6164 105.2L15.4668 106.284ZM5.48782 124.416C10.1589 119.216 13.5731 113.013 15.4668 106.284L11.6164 105.2C9.88868 111.339 6.77383 116.999 2.51218 121.742L5.48782 124.416ZM6 329.65V123.079H2V329.65H6ZM6 601V329.65H2V601H6ZM46.928 599H4V603H46.928V599ZM61.3399 572.984C68.4236 584.306 60.2838 599 46.928 599V603C63.4264 603 73.4814 584.849 64.7309 570.862L61.3399 572.984ZM57.4666 566.792L61.3399 572.984L64.7309 570.862L60.8576 564.671L57.4666 566.792ZM120.716 514.101L57.9154 564.168L60.4089 567.296L123.209 517.229L120.716 514.101ZM123.963 601V515.665H119.963V601H123.963ZM161.095 599H121.963V603H161.095V599ZM178.095 582C178.095 591.389 170.484 599 161.095 599V603C172.693 603 182.095 593.598 182.095 582H178.095ZM178.095 566.092V582H182.095V566.092H178.095ZM256.473 564.092H180.095V568.092H256.473V564.092ZM258.473 582V566.092H254.473V582H258.473ZM275.473 599C266.084 599 258.473 591.389 258.473 582H254.473C254.473 593.598 263.875 603 275.473 603V599ZM318.943 599H275.473V603H318.943V599ZM335.943 582C335.943 591.389 328.332 599 318.943 599V603C330.541 603 339.943 593.598 339.943 582H335.943ZM335.943 566.092V582H339.943V566.092H335.943ZM414.746 564.092H337.943V568.092H414.746V564.092ZM416.746 582V566.092H412.746V582H416.746ZM433.746 599C424.357 599 416.746 591.389 416.746 582H412.746C412.746 593.598 422.148 603 433.746 603V599ZM475 599H433.746V603H475V599ZM473 28V601H477V28H473ZM447 2C461.359 2 473 13.6406 473 28H477C477 11.4315 463.569 -2 447 -2V2ZM149.963 2H447V-2H149.963V2Z" fill="#252525" mask="url(#path-1-inside-1_206_784)"/>
</g>
<defs>
<filter id="filter0_d_206_784" x="0" y="0" width="479" height="609" filterUnits="userSpaceOnUse" color-interpolation-filters="sRGB">
<feFlood flood-opacity="0" result="BackgroundImageFix"/>
<feColorMatrix in="SourceAlpha" type="matrix" values="0 0 0 0 0 0 0 0 0 0 0 0 0 0 0 0 0 0 127 0" result="hardAlpha"/>
<feOffset dy="4"/>
<feGaussianBlur stdDeviation="2"/>
<feComposite in2="hardAlpha" operator="out"/>
<feColorMatrix type="matrix" values="0 0 0 0 0 0 0 0 0 0 0 0 0 0 0 0 0 0 0.25 0"/>
<feBlend mode="normal" in2="BackgroundImageFix" result="effect1_dropShadow_206_784"/>
<feBlend mode="normal" in="SourceGraphic" in2="effect1_dropShadow_206_784" result="shape"/>
</filter>
</defs>
</svg>
