<svg width="471" height="599" viewBox="0 0 471 599" fill="none" xmlns="http://www.w3.org/2000/svg">
<mask id="path-1-inside-1_206_787" fill="white">
<path fill-rule="evenodd" clip-rule="evenodd" d="M325.037 0C340.501 0 353.037 12.536 353.037 28V144.52L353.754 143.888C359.277 139.026 362.663 132.184 363.181 124.844L367.889 58.1066L448.511 59.5413L461.455 105.378C463.268 111.798 466.534 117.714 471 122.669V328.553V599H428.133C413.193 599 404.098 582.552 412.041 569.899L415.838 563.849L353.037 513.949V599H313.905C303.412 599 294.905 590.493 294.905 580V564.208H218.527V580C218.527 590.493 210.02 599 199.527 599H156.057C145.563 599 137.057 590.493 137.057 580V564.208H60.254V580C60.254 590.493 51.7474 599 41.254 599H-3.05176e-05V28C-3.05176e-05 12.536 12.536 0 28 0H325.037Z"/>
</mask>
<path d="M353.037 144.52L354.359 146.021L351.037 148.946V144.52H353.037ZM353.754 143.888L352.433 142.387L352.433 142.387L353.754 143.888ZM363.181 124.844L365.176 124.985V124.985L363.181 124.844ZM367.889 58.1066L365.894 57.9658L366.028 56.0731L367.925 56.1069L367.889 58.1066ZM448.511 59.5413L448.546 57.5416L450.032 57.5681L450.436 58.9978L448.511 59.5413ZM461.455 105.378L459.53 105.922L461.455 105.378ZM471 122.669L472.486 121.33L473 121.901V122.669H471ZM471 599H473V601H471V599ZM412.041 569.899L413.734 570.962L412.041 569.899ZM415.838 563.849L417.082 562.283L418.483 563.397L417.532 564.912L415.838 563.849ZM353.037 513.949H351.037V509.805L354.282 512.383L353.037 513.949ZM353.037 599H355.037V601H353.037V599ZM294.905 564.208V562.208H296.905V564.208H294.905ZM218.527 564.208H216.527V562.208H218.527V564.208ZM137.057 564.208V562.208H139.057V564.208H137.057ZM60.254 564.208H58.254V562.208H60.254V564.208ZM-3.05176e-05 599V601H-2.00003V599H-3.05176e-05ZM351.037 28C351.037 13.6406 339.397 2 325.037 2V-2C341.606 -2 355.037 11.4315 355.037 28H351.037ZM351.037 144.52V28H355.037V144.52H351.037ZM355.076 145.389L354.359 146.021L351.716 143.019L352.433 142.387L355.076 145.389ZM365.176 124.985C364.621 132.849 360.993 140.179 355.076 145.389L352.433 142.387C357.561 137.872 360.705 131.519 361.186 124.704L365.176 124.985ZM369.884 58.2473L365.176 124.985L361.186 124.704L365.894 57.9658L369.884 58.2473ZM448.475 61.541L367.854 60.1063L367.925 56.1069L448.546 57.5416L448.475 61.541ZM459.53 105.922L446.586 60.0849L450.436 58.9978L463.38 104.835L459.53 105.922ZM469.514 124.008C464.843 118.825 461.427 112.637 459.53 105.922L463.38 104.835C465.109 110.959 468.225 116.603 472.486 121.33L469.514 124.008ZM469 328.553V122.669H473V328.553H469ZM469 599V328.553H473V599H469ZM428.133 597H471V601H428.133V597ZM413.734 570.962C406.628 582.284 414.765 597 428.133 597V601C411.62 601 401.568 582.821 410.347 568.835L413.734 570.962ZM417.532 564.912L413.734 570.962L410.347 568.835L414.144 562.786L417.532 564.912ZM354.282 512.383L417.082 562.283L414.594 565.415L351.793 515.515L354.282 512.383ZM351.037 599V513.949H355.037V599H351.037ZM313.905 597H353.037V601H313.905V597ZM296.905 580C296.905 589.389 304.516 597 313.905 597V601C302.307 601 292.905 591.598 292.905 580H296.905ZM296.905 564.208V580H292.905V564.208H296.905ZM218.527 562.208H294.905V566.208H218.527V562.208ZM216.527 580V564.208H220.527V580H216.527ZM199.527 597C208.916 597 216.527 589.389 216.527 580H220.527C220.527 591.598 211.125 601 199.527 601V597ZM156.057 597H199.527V601H156.057V597ZM139.057 580C139.057 589.389 146.668 597 156.057 597V601C144.459 601 135.057 591.598 135.057 580H139.057ZM139.057 564.208V580H135.057V564.208H139.057ZM60.254 562.208H137.057V566.208H60.254V562.208ZM58.254 580V564.208H62.254V580H58.254ZM41.254 597C50.6428 597 58.254 589.389 58.254 580H62.254C62.254 591.598 52.852 601 41.254 601V597ZM-3.05176e-05 597H41.254V601H-3.05176e-05V597ZM1.99997 28V599H-2.00003V28H1.99997ZM28 2C13.6406 2 1.99997 13.6406 1.99997 28H-2.00003C-2.00003 11.4315 11.4315 -2 28 -2V2ZM325.037 2H28V-2H325.037V2Z" fill="#252525" mask="url(#path-1-inside-1_206_787)"/>
</svg>
