<svg width="471" height="600" viewBox="0 0 471 600" fill="none" xmlns="http://www.w3.org/2000/svg">
<mask id="path-1-inside-1_288_159" fill="white">
<path fill-rule="evenodd" clip-rule="evenodd" d="M325.037 0C340.501 0 353.037 12.536 353.037 28V144.761L353.769 144.115C359.283 139.253 362.663 132.417 363.179 125.083L367.889 58.2036L448.511 59.6407L461.457 105.56C463.268 111.987 466.534 117.911 471 122.874V329.102V600H428.102C413.169 600 404.073 583.565 412.002 570.911L415.838 564.79L353.037 514.807V600H313.905C303.411 600 294.905 591.493 294.905 581V565.15H218.526V581C218.526 591.493 210.02 600 199.526 600H156.056C145.563 600 137.056 591.493 137.056 581V565.15H60.2536V581C60.2536 591.493 51.747 600 41.2536 600H-0.000396729V28C-0.000396729 12.536 12.5357 0 27.9996 0H325.037Z"/>
</mask>
<path d="M353.037 144.761L354.36 146.261L351.037 149.192V144.761H353.037ZM353.769 144.115L352.446 142.615H352.446L353.769 144.115ZM363.179 125.083L361.184 124.943L363.179 125.083ZM367.889 58.2036L365.894 58.0631L366.028 56.1701L367.925 56.2039L367.889 58.2036ZM448.511 59.6407L448.546 57.641L450.033 57.6675L450.436 59.098L448.511 59.6407ZM461.457 105.56L459.532 106.103L461.457 105.56ZM471 122.874L472.487 121.536L473 122.107V122.874H471ZM471 600H473V602H471V600ZM412.002 570.911L410.308 569.849L412.002 570.911ZM415.838 564.79L417.083 563.226L418.481 564.338L417.533 565.852L415.838 564.79ZM353.037 514.807H351.037V510.659L354.283 513.242L353.037 514.807ZM353.037 600H355.037V602H353.037V600ZM294.905 565.15V563.15H296.905V565.15H294.905ZM218.526 565.15H216.526V563.15H218.526V565.15ZM137.056 565.15V563.15H139.056V565.15H137.056ZM60.2536 565.15H58.2536V563.15H60.2536V565.15ZM-0.000396729 600V602H-2.0004V600H-0.000396729ZM351.037 28C351.037 13.6406 339.397 2 325.037 2V-2C341.606 -2 355.037 11.4315 355.037 28H351.037ZM351.037 144.761V28H355.037V144.761H351.037ZM355.092 145.615L354.36 146.261L351.714 143.261L352.446 142.615L355.092 145.615ZM365.174 125.224C364.621 133.081 361 140.405 355.092 145.615L352.446 142.615C357.566 138.1 360.704 131.752 361.184 124.943L365.174 125.224ZM369.884 58.3441L365.174 125.224L361.184 124.943L365.894 58.0631L369.884 58.3441ZM448.475 61.6404L367.854 60.2033L367.925 56.2039L448.546 57.641L448.475 61.6404ZM459.532 106.103L446.586 60.1834L450.436 59.098L463.382 105.018L459.532 106.103ZM469.513 124.212C464.842 119.021 461.427 112.825 459.532 106.103L463.382 105.018C465.11 111.149 468.226 116.801 472.487 121.536L469.513 124.212ZM469 329.102V122.874H473V329.102H469ZM469 600V329.102H473V600H469ZM428.102 598H471V602H428.102V598ZM413.697 571.973C406.602 583.295 414.741 598 428.102 598V602C411.597 602 401.543 583.835 410.308 569.849L413.697 571.973ZM417.533 565.852L413.697 571.973L410.308 569.849L414.143 563.728L417.533 565.852ZM354.283 513.242L417.083 563.226L414.592 566.355L351.792 516.371L354.283 513.242ZM351.037 600V514.807H355.037V600H351.037ZM313.905 598H353.037V602H313.905V598ZM296.905 581C296.905 590.389 304.516 598 313.905 598V602C302.307 602 292.905 592.598 292.905 581H296.905ZM296.905 565.15V581H292.905V565.15H296.905ZM218.526 563.15H294.905V567.15H218.526V563.15ZM216.526 581V565.15H220.526V581H216.526ZM199.526 598C208.915 598 216.526 590.389 216.526 581H220.526C220.526 592.598 211.124 602 199.526 602V598ZM156.056 598H199.526V602H156.056V598ZM139.056 581C139.056 590.389 146.667 598 156.056 598V602C144.458 602 135.056 592.598 135.056 581H139.056ZM139.056 565.15V581H135.056V565.15H139.056ZM60.2536 563.15H137.056V567.15H60.2536V563.15ZM58.2536 581V565.15H62.2536V581H58.2536ZM41.2536 598C50.6425 598 58.2536 590.389 58.2536 581H62.2536C62.2536 592.598 52.8516 602 41.2536 602V598ZM-0.000396729 598H41.2536V602H-0.000396729V598ZM1.9996 28V600H-2.0004V28H1.9996ZM27.9996 2C13.6402 2 1.9996 13.6406 1.9996 28H-2.0004C-2.0004 11.4315 11.4311 -2 27.9996 -2V2ZM325.037 2H27.9996V-2H325.037V2Z" fill="#252525" mask="url(#path-1-inside-1_288_159)"/>
</svg>
