<?xml version="1.0" encoding="UTF-8"?>
<svg id="_Слой_2" data-name="Слой 2" xmlns="http://www.w3.org/2000/svg" viewBox="0 0 188.14 285.66">
  <g id="_Слой_1-2" data-name="Слой 1">
    <path d="m39.54,276.15c1.52-.35,3.03-.7,4.85-1.11-2.9-1.56-5.61-3.01-8.31-4.46l.51-2.12c4.64,1.07,9.24,2.55,13.94,3.14,28.34,3.57,56.75,6.74,85.01-.24,18.06-4.46,34-11.89,42.01-30.71,7.43-17.45,1.58-32.95-5.84-48.28-.91-1.88-4.86-3.11-7.45-3.22-26.82-1.13-45.04-4.61-71.87-5.48-4.81-.16-18.23,2.59-23.06,1.61,32.25-6.86,64.7-4.98,98.85-1.76-6.27-13.33-12.32-26.19-17.61-37.43-20.11,1.12-39.33,3.12-58.54,3.02-19.89-.11-21.05-.39-27.67,18.77-3,8.69-4.2,16.73,2.63,25.49,3.17,4.06.54,12.64.54,20.34,33.75-4.61,69.64.97,104.71-12.46-2.67,2.27-5.01,5.83-8.05,6.59-10.91,2.72-21.98,5.59-33.13,6.4-24.13,1.75-48.36,2.25-72.04,3.25,2.19-12.79-1.87-21.57-7.54-30.83-12.82,2.64-25.77,5.31-38.73,7.97-.17,1.4-.34,2.81-.51,4.21,11.42,4.37,22.84,8.74,34.26,13.11-12.99,2.29-23.71-3.42-34.23-9.53-11.65,19.54-8.67,39.54,7.51,54.15,2.63,2.38,4.63,5.72,6.14,8.99,1.54,3.31,2.11,7.07,1.97,12.07-1.95-2.09-4.12-4.02-5.78-6.32-2.54-3.51-4.04-8.09-7.2-10.8C.3,247.99-2.36,232.25,1.74,214.64c1.69-7.23,4.33-14.23,6.59-21.5-6.49-5.69-6.55-14.96,2.55-24.19,8.91-9.03,11.98-19.42,13.21-31.36,1.05-10.21,2.44-20.15,9.86-28.86,3.73-4.38,3.32-12.3,5.24-20.58-1.48-3.99-3.84-10.29-6.13-16.61-.55-1.52-1.76-3.6-1.2-4.6,7.62-13.54-4.98-21.7-8.55-32.15-2.5-7.31-6.32-14.18-9.7-21.17-3.13-6.44-1.33-10.1,5.87-10.41,21.02-.89,42.04-1.89,63.07-2.33C111.69.27,140.83-.1,169.97.03c4.55.02,10.82,2.09,13.05,5.4,1.62,2.4-1.44,8.78-3.58,12.74-4.62,8.53-10.7,16.31-14.86,25.03-3.21,6.74-4.25,14.5-6.52,21.72-2.12,6.76-4.29,13.54-6.97,20.09-4.87,11.89-5.94,23.18.36,35.29,2.86,5.49,2.14,12.81,3.23,19.27.52,3.08.98,6.34,2.33,9.09,7.13,14.54,18.8,27.22,25.38,41.99,7.84,17.59,8.04,37.27-1.55,55.74-1.63,3.15-3.5,6.2-5.5,9.13-12.19,17.97-28.77,27.78-50.83,29.18-26.67,1.7-53.11,1.59-79.27-4.47-2.08-.48-4.04-1.5-6.06-2.26.12-.61.25-1.22.37-1.83ZM173.72,16.87c-47.34,17.79-102.34-4.21-155.15-3.64,7.57,14.72,14.3,27.9,21.15,41.02.54,1.04,1.76,2.29,2.8,2.43,7.94,1.06,8.48,6.8,8.45,12.93-.07,13.17,5.12,22.6,19.82,26.63-1.73-7.69-3.85-14.71-4.79-21.89-1.49-11.45,1.68-14.4,12.97-14.85,22.87-.93,45.73-2.06,68.57-3.51,2.53-.16,5.85-2.42,7.16-4.66,6.52-11.1,12.5-22.52,19.01-34.45Zm-101.75,90.18c1.89,12.9,3.57,24.42,5.35,36.53,22.8,2.58,44.91,2.78,66.77-4.01,6.38-1.98,7.42-5.21,5.01-10.8-3.17-7.36-6.16-14.79-9.03-21.72h-68.09Zm83.62-45.15c-4.96-.46-7.53-1.14-9.98-.85-7.71.91-9.52,5.38-17.23,5.61-14.23.42-34.33-2.22-48.56-2.84-8.98-.39-10.77,3.92-9.23,11.36.99,4.75,2.89,9.39,3.29,14.17.51,6.03,3.5,7.61,8.9,7.24,18.4-1.25,36.8-2.31,55.2-3.59,1.79-.12,4.54-.8,5.1-2.02,4.26-9.2,8.08-18.61,12.51-29.07ZM15.74,189.42c12.16-2.21,23.43-4.27,32.54-5.93,4.22-10.93,8.04-20.75,11.79-30.59.99-2.6,2.29-5.22,2.58-7.93.51-4.79-.81-10.08.75-14.4,2.9-8.04.18-13.23-7.01-19.82-.59,9.28-1.33,16.57-1.43,23.87-.09,6.04.74,11.86-8.23,12-7.72.12-11.7-2.61-8.18-9.57-7.46,17.14-14.92,34.28-22.8,52.37ZM178.68,7.13c-8.78-4.5-126.11-3.35-148.67.95,25.53,7.69,131.97,7.35,148.67-.95ZM45.04,109.14c-1.93,11.81-3.5,21.45-5.23,32.01,4.66.31,7.61.51,10.77.72.57-8.61.93-16.33,1.67-24.02.37-3.82-2.08-8.68,4.35-10.85,1.08-.36.54-8.22-.93-11.96-.52-1.32-6.43-1.77-9.18-.74-7.89,2.94-7.75,7.62-1.46,14.84Zm95.49-7.34c.01-.63.02-1.25.04-1.88H61.47c.02.63.04,1.25.06,1.88h79ZM45.25,62.03l-3.31-1.26c-1.62,2.51-5.05,5.5-4.53,7.44,2.11,7.97,3.23,17.02,12.67,22.37-1.81-10.72-3.32-19.64-4.83-28.55Z"/>
  </g>
</svg>