<?xml version="1.0" encoding="UTF-8"?>
<svg id="_Слой_2" data-name="Слой 2" xmlns="http://www.w3.org/2000/svg" viewBox="0 0 189.28 256.91">
  <g id="_Слой_1-2" data-name="Слой 1">
    <path d="m42.15,136.52c-4.02-13.46-8.46-28.4-12.98-43.32-.53-1.74-1.77-4.42-2.75-5.95C17.91,74.07,9.3,60.95.82,47.76c-.73-1.13-.74-2.72-.82-3.04,12.09-4.36,23.52-8.99,35.26-12.57,14.72-4.5,29.66-8.29,44.59-12.05,3.78-.95,4.61-2.47,2.52-5.4-3.57-5.03-.76-8.84,2.31-12.35,2.27-2.59,5.23-3.47,8.08-.35.55.61,1.16,1.38,1.88,1.59,6.1,1.74,6.29,5.75,4.27,10.7-1.18,2.89.03,3.98,2.89,4.92,8.3,2.71,16.43,5.93,24.68,8.79,5.16,1.79,10.63,2.79,15.58,5.01,8.99,4.02,17.97,2.95,27.23,1.69,3.56-.48,7.41.89,11.07,1.66,2.53.54,4.96,1.5,7.77,2.38-.12.49-.64,1.35-.4,1.88,4.65,10.61-2.39,19.14-5.08,28.4-3.07,10.57-6.4,21.06-9.86,31.51-.49,1.49-2.05,3.3-3.5,3.92-2.44,1.04-5.22,1.39-7.9,1.73-3.71.48-7.15.56-6.5-5.03.12-1.07-1.62-2.35-2.91-4.08,1.01-3.2,3.08-4.89,7.12-2.65,2.62,1.45,4.39.43,5.47-2.15.45-1.07.94-2.15,1.2-3.28,2.98-12.82,5.9-25.65,8.86-38.47,1.07-4.64-1.61-5-5.08-4.61-.87,3.92-1.73,7.82-2.37,10.73h-8.36c-4.53,13.22-8.91,25.88-13.19,38.57-.57,1.69-.94,3.44-1.07,5.21-.72,9.96-3.6,19.31-7.83,28.25-1.24,2.62-3.18,4.9-4.8,7.33-.72-.02-1.43-.04-2.15-.06,2.08,5.01,4.62,9.88,6.1,15.06,1.39,4.84,1.94,9.98,2.34,15.03.38,4.88.09,9.81.09,16.13,1.34-1.68,1.74-2.18,2.22-2.78,2.49,13.61,4.16,27.34,7.67,40.58,3.24,12.26-2.27,19.54-11.36,26.09-.83-.76-1.81-1.66-2.83-2.59-3.81,5.75-10.03,5.55-15.38,6.75-6.88,1.54-14.32.81-20.37,5.51-.57.44-1.61.37-2.43.39-14.73.31-29.5,2.68-44.03-2.48-9.34-3.32-19.09-5.47-28.61-8.28-6.43-1.9-10.53-6.92-12.78-12.59-1.21-3.06.52-7.44,1.38-11.13,3.64-15.7,7.28-31.4,11.28-47.01,2.1-8.21,4.27-16.53,7.73-24.21,2.16-4.79,6.79-8.46,11.36-13.89Zm22.46-5.27c-.86-1.15-2.28-2.2-2.49-3.46-1.26-7.53-3.14-15.11-3.12-22.67.04-15.21-5.46-30.09-2.22-45.47.77-3.67-1.18-6.44-5.45-7.54-3.81-.98-7.27-3.2-11.03-4.47-3.03-1.02-6.25-1.84-9.42-2.02-4.23-.23-4.98,2.44-2.98,6.39,2.49,4.91,4.46,10.07,6.3,15.26,4.8,13.57,10.82,26.7,7.18,42.1-1.67,7.05.34,14.98.7,22.77,6.57.46,12.68.97,18.8,1.25,1.27.06,2.59-.69,3.88-1.06,3.01.1,6.02.18,9.03.31,1.37.06,2.74.17,4.1.35,3.64.49,7.28,1.29,10.92,1.33.8,0,2.32-2.66,2.31-4.09-.02-4.44-1.02-8.89-.9-13.32.16-5.79,1.52-11.55,1.51-17.33-.01-14.25-.55-28.5-.77-42.75-.05-3.08-1.69-3.53-4.18-3.34-9.47.75-18.94,1.46-29.57,2.27.96,14.9,1.68,30.76,3.11,46.56.88,9.69,2.83,19.29,4.3,28.92Zm21.27,114.47c-1.54-6.4-4.2-11.96-3.96-17.4.86-19.55,2.68-39.05,4.18-58.57.54-7.07,1.19-14.12,1.83-21.68-9.08-1.1-17.95-2.16-26.81-3.25-3.43-.42-4.89,1.02-4.79,4.46.05,1.63-.34,3.28-.62,4.91-1.95,11.3-3.93,22.6-5.88,33.9-.44,2.58-.79,5.18-.98,6.43-3.58-16.31,2.58-32.72,6.58-49.48-2.35-.7-3.7-1.08-5.22-1.58-4.83-1.6-9.98,1.02-11.45,5.89-4.14,13.79-7.69,27.78-10.79,41.84-2.06,9.38-2.78,19.04-4.35,28.54-.74,4.49-1.28,9.4-7.25,10.52-.72.13-1.23,1.35-1.57,1.76,8.3,1.6,16.54,3.18,23.94,4.6,1.9-9.49,3.79-18.98,5.69-28.47.54.1,1.07.2,1.61.3-1.31,8.52-2.56,17.04-3.95,25.54-.48,2.93,0,4.61,3.41,5.21,9.13,1.61,18.18,3.72,27.31,5.31,4.52.79,9.17.88,13.05,1.23Zm62.01-200.37c-16.76-7.87-32.19-15.11-47.63-22.36l-.44.76c8.56,6.01,17.13,12.02,25.69,18.03.21.15.26.45.11.66l-.17.23c-.3.42-.89.51-1.31.21-1.39-1.01-2.77-2.05-4.21-2.98-1.17-.76-2.4-1.53-3.71-1.97-2.5-.84-5.41-.91-7.57-2.24-5.13-3.14-9.91-6.84-15.51-10.78.3,5.15.52,9.12.75,13.1l-1.18.2c-1.14-4.13-2.29-8.26-3.54-12.76-7.17,4.94-14.1,9.72-21.04,14.49l.48,1.73c12.92.81,25.84,1.59,38.76,2.45,2.59.17,5.2.54,7.73,1.1.7.16,5.5.7,5.69,1.51.14.6-4.52,2.49-5.02,2.63-3.97,1.16-7.96,2.38-12.03,3.06-3.49.59-7.1.48-11.12.71l.06,79.39c4.27,0,8.09-.28,11.86.05,5.86.51,10.63-.06,10.84-7.52.01-.5.54-.99,1.24-2.18,0,3.48,0,6.04,0,8.77,3.42-.35,6.55-.52,9.61-1.06.91-.16,2.08-1.19,2.38-2.07,2.07-6.13,4.01-12.31,5.86-18.51,3.94-13.19,8.11-26.32,11.57-39.63,2.08-7.99,2.99-16.28,4.31-23.76-2.1.13-32.4.98-34.56,1.11,0-.49-57-.96,28.17-2.2.88-.04,1.76-.08,3.94-.18Zm-32.25,103.83c-8.34-.41-16.92-.83-25.85-1.27.31,2.18.68,3.32.61,4.44-1.04,17.05-2.59,34.07-3.09,51.13-.42,14.28-2.11,28.7,1.85,43.7,3.39-.75,6.59-1.71,9.86-2.12,4.05-.52,8.24-.16,12.22-.94,8.77-1.7,9.11-1.91,8.68-10.88-.63-13.23-1.83-26.44-2.85-39.66-.51-6.61-1.28-13.19-1.64-19.81-.22-4.12.15-8.27.19-12.41.04-3.89,0-7.77,0-12.19Zm10.76,93.08c3.32-1.46,6.86-2.07,7.11-3.32.57-2.92,2.48-3.96,4.46-4.58,5.51-1.71,5.76-5.62,4.84-10.18-.33-1.63-1.07-3.18-1.3-4.82-1.59-11.33-3.29-22.66-4.59-34.03-1.51-13.25,1.41-27.59-10.08-38.18-2.53.59-5.09,1.19-7.86,1.84-.13,1.11-.43,2.25-.36,3.37,1.48,24.37,2.88,48.75,4.61,73.1.38,5.37,1.98,10.66,3.17,16.79Zm-78.35-107.21c-.38.66-.76,1.32-1.15,1.98,1.61,1.03,3.13,2.77,4.85,2.98,14.33,1.76,28.66,3.62,43.04,4.64,8.2.58,16.54-.12,24.77-.76,2.8-.22,5.48-2.01,8.42-3.17-.76-1.1-.84-1.32-.96-1.35-.41-.1-.85-.24-1.26-.18-10.6,1.47-20.86,3.91-31.95,1.07-9.83-2.52-20.38-2.21-30.6-3.25-5.07-.52-10.11-1.29-15.17-1.94Zm-2.45-97.85c.07.35.15.71.22,1.06,4.35.22,9.47,2.02,12.9.35,7.79-3.8,14.75-9.3,22.05-14.11l-.71-1.35c-11.49,4.68-22.98,9.37-34.46,14.05Zm-34.4,11.09c3.42,4.74,6.57,9.1,9.72,13.46.05-3.07-.63-5.77-1.12-8.51-1.1-6.14-1.06-6.14-8.6-4.95Zm150.09-5.56c-1.08,3.18-2.01,5.9-3.11,9.14h6.18c-.38-3.65,1.61-7.83-3.07-9.14Zm-2.11,55.21c1.57,4.63,4.55,2.62,6.68,2.14,1.68-.38,3.11-1.88,4.64-2.89l-.9-1.58c-3.27.73-6.55,1.46-10.43,2.32Z"/>
    <path d="m127.22,46.31c-1.77,12.13-3.55,24.25-5.19,35.47-2.69-11.67.99-23.61,3.61-35.65.53.06,1.06.12,1.58.18Z"/>
  </g>
</svg>