<svg width="497" height="567" viewBox="0 0 497 567" fill="none" xmlns="http://www.w3.org/2000/svg">
<mask id="path-1-inside-1_288_75" fill="white">
<path fill-rule="evenodd" clip-rule="evenodd" d="M47.3039 0H450.643L457.737 56.4303H488.392L497 114.129H459.629L424.738 567H69.5762L37.2004 114.129H0L9.73042 56.4303H39.2848L47.3039 0Z"/>
</mask>
<path d="M450.643 0L452.628 -0.249454L452.408 -2H450.643V0ZM47.3039 0V-2H45.568L45.3238 -0.281384L47.3039 0ZM457.737 56.4303L455.753 56.6797L455.973 58.4303H457.737V56.4303ZM488.392 56.4303L490.37 56.1352L490.116 54.4303H488.392V56.4303ZM497 114.129V116.129H499.32L498.978 113.833L497 114.129ZM459.629 114.129V112.129H457.777L457.635 113.975L459.629 114.129ZM424.738 567V569H426.59L426.733 567.154L424.738 567ZM69.5762 567L67.5813 567.143L67.7141 569H69.5762V567ZM37.2004 114.129L39.1953 113.986L39.0625 112.129H37.2004V114.129ZM0 114.129L-1.97215 113.796L-2.36553 116.129H0V114.129ZM9.73042 56.4303V54.4303H8.03947L7.75827 56.0977L9.73042 56.4303ZM39.2848 56.4303V58.4303H41.0207L41.2649 56.7117L39.2848 56.4303ZM450.643 -2H47.3039V2H450.643V-2ZM459.721 56.1808L452.628 -0.249454L448.659 0.249454L455.753 56.6797L459.721 56.1808ZM488.392 54.4303H457.737V58.4303H488.392V54.4303ZM498.978 113.833L490.37 56.1352L486.414 56.7254L495.022 114.424L498.978 113.833ZM459.629 116.129H497V112.129H459.629V116.129ZM457.635 113.975L422.744 566.846L426.733 567.154L461.623 114.282L457.635 113.975ZM424.738 565H69.5762V569H424.738V565ZM71.5711 566.857L39.1953 113.986L35.2055 114.271L67.5813 567.143L71.5711 566.857ZM0 116.129H37.2004V112.129H0V116.129ZM7.75827 56.0977L-1.97215 113.796L1.97215 114.461L11.7026 56.7629L7.75827 56.0977ZM39.2848 54.4303H9.73042V58.4303H39.2848V54.4303ZM45.3238 -0.281384L37.3047 56.1489L41.2649 56.7117L49.284 0.281384L45.3238 -0.281384Z" fill="#252525" mask="url(#path-1-inside-1_288_75)"/>
</svg>
