<svg width="497" height="564" viewBox="0 0 497 564" fill="none" xmlns="http://www.w3.org/2000/svg">
<mask id="path-1-inside-1_206_707" fill="white">
<path fill-rule="evenodd" clip-rule="evenodd" d="M47.3026 0H450.631L457.724 56.1317H488.378L496.986 113.525H459.616L424.726 564H69.5741L37.1992 113.525H0L9.73015 56.1317H39.2837L47.3026 0Z"/>
</mask>
<path d="M450.631 0L452.615 -0.250753L452.394 -2H450.631V0ZM47.3026 0V-2H45.568L45.3227 -0.282843L47.3026 0ZM457.724 56.1317L455.74 56.3824L455.961 58.1317H457.724V56.1317ZM488.378 56.1317L490.356 55.8351L490.101 54.1317H488.378V56.1317ZM496.986 113.525V115.525H499.308L498.964 113.228L496.986 113.525ZM459.616 113.525V111.525H457.765L457.622 113.37L459.616 113.525ZM424.726 564V566H426.577L426.72 564.154L424.726 564ZM69.5741 564L67.5792 564.143L67.7127 566H69.5741V564ZM37.1992 113.525L39.1941 113.381L39.0606 111.525H37.1992V113.525ZM0 113.525L-1.97186 113.19L-2.36761 115.525H0V113.525ZM9.73015 56.1317V54.1317H8.04068L7.75828 55.7974L9.73015 56.1317ZM39.2837 56.1317V58.1317H41.0183L41.2636 56.4145L39.2837 56.1317ZM450.631 -2H47.3026V2H450.631V-2ZM459.708 55.8809L452.615 -0.250753L448.646 0.250753L455.74 56.3824L459.708 55.8809ZM488.378 54.1317H457.724V58.1317H488.378V54.1317ZM498.964 113.228L490.356 55.8351L486.401 56.4283L495.008 113.821L498.964 113.228ZM459.616 115.525H496.986V111.525H459.616V115.525ZM457.622 113.37L422.732 563.846L426.72 564.154L461.61 113.679L457.622 113.37ZM424.726 562H69.5741V566H424.726V562ZM71.5689 563.857L39.1941 113.381L35.2044 113.668L67.5792 564.143L71.5689 563.857ZM0 115.525H37.1992V111.525H0V115.525ZM7.75828 55.7974L-1.97186 113.19L1.97186 113.859L11.702 56.466L7.75828 55.7974ZM39.2837 54.1317H9.73015V58.1317H39.2837V54.1317ZM45.3227 -0.282843L37.3038 55.8488L41.2636 56.4145L49.2825 0.282843L45.3227 -0.282843Z" fill="#252525" mask="url(#path-1-inside-1_206_707)"/>
</svg>
