<?xml version="1.0" encoding="UTF-8"?>
<svg id="_Слой_1" data-name="Слой 1" xmlns="http://www.w3.org/2000/svg" viewBox="0 0 32 32">
  <defs>
    <style>
      .cls-1 {
        fill: #efe4e0;
      }
    </style>
  </defs>
  <path class="cls-1" d="m16,0C7.16,0,0,7.16,0,16s7.16,16,16,16,16-7.16,16-16S24.84,0,16,0Zm10.3,8.15c-.33.05-.61.19-.86.41-.25.22-.51.57-.77,1.03-.27.47-.62,1.12-1.03,1.96-1.11,2.26-2.28,4.5-3.51,6.75-1.23,2.24-2.6,4.59-4.11,7.05-.36.12-.78.19-1.26.22-.48.03-.92.04-1.35.04-.4-1.64-.81-3.28-1.24-4.92-.43-1.65-.87-3.28-1.33-4.9-.46-1.62-.92-3.21-1.38-4.75-.22-.8-.43-1.39-.61-1.78-.18-.38-.38-.64-.59-.78-.21-.15-.49-.26-.86-.33-.05-.27-.09-.6-.1-1.01-.01-.4.02-.81.07-1.23.5.02,1.04.04,1.64.06.59.02,1.15.03,1.67.03h2.56c.58,0,1.19-.01,1.85-.03.66-.02,1.28-.04,1.88-.06-.02.46-.07.88-.15,1.26-.08.39-.16.71-.26.98-.53.05-.92.2-1.16.44-.23.24-.35.57-.34.99.01.42.1.96.27,1.63.42,1.53.79,3.01,1.11,4.45.22,1.04.44,2.18.64,3.42.89-1.46,1.64-2.77,2.25-3.92.73-1.39,1.32-2.62,1.76-3.69.36-.84.56-1.49.6-1.93.04-.45-.05-.78-.27-.99-.22-.21-.55-.35-.99-.4-.13-.67-.14-1.42-.03-2.24.48.04,1.05.07,1.72.08s1.21.01,1.63.01c.53,0,1.01,0,1.43-.01s.93-.04,1.52-.08c-.04.81-.17,1.55-.4,2.24Z"/>
</svg>