<svg width="257" height="285" viewBox="0 0 257 285" fill="none" xmlns="http://www.w3.org/2000/svg">
<mask id="path-1-inside-1_206_688" fill="white">
<path d="M39.2715 0L213.409 0L256.298 57.6157V93.4606V186.921V285H0L0 186.921L0 93.4606L0 57.6157L39.2715 0Z"/>
</mask>
<path d="M39.2715 0L213.409 0L256.298 57.6157V93.4606V186.921V285H0L0 186.921L0 93.4606L0 57.6157L39.2715 0Z" fill="#EFE4E0"/>
<path d="M39.2715 0V-2H38.2143L37.6188 -1.12644L39.2715 0ZM213.409 0L215.014 -1.19423L214.414 -2L213.409 -2V0ZM256.298 285V287H258.298V285H256.298ZM0 285H-2V287H0L0 285ZM0 57.6157L-1.65261 56.4893L-2 56.999V57.6157H0ZM256.298 57.6157H258.298V56.9531L257.902 56.4215L256.298 57.6157ZM39.2715 2L213.409 2V-2L39.2715 -2V2ZM256.298 283H0L0 287H256.298V283ZM2 285L2 186.921H-2L-2 285H2ZM254.298 186.921L254.298 285H258.298V186.921L254.298 186.921ZM254.298 93.4606V186.921L258.298 186.921V93.4606H254.298ZM2 186.921L2 93.4606H-2L-2 186.921H2ZM2 93.4606L2 57.6157H-2L-2 93.4606H2ZM1.65261 58.7422L40.9241 1.12644L37.6188 -1.12644L-1.65261 56.4893L1.65261 58.7422ZM211.805 1.19423L254.694 58.81L257.902 56.4215L215.014 -1.19423L211.805 1.19423ZM254.298 57.6157V93.4606H258.298V57.6157H254.298Z" fill="#252525" mask="url(#path-1-inside-1_206_688)"/>
</svg>
