<svg width="1164" height="1296" viewBox="0 0 1164 1296" fill="none" xmlns="http://www.w3.org/2000/svg">
<mask id="path-1-inside-1_112_7" fill="white">
<path fill-rule="evenodd" clip-rule="evenodd" d="M795.369 134C795.369 59.9939 855.363 0 929.369 0L954.4 0C1028.41 0 1088.4 59.9938 1088.4 134L1088.4 308.801L1164 343.21V951.355L1088.4 987.186V987.483L823.485 987.483V990.291C823.485 993.429 822.145 996.417 819.802 998.505L817.852 1000.24C814.6 1003.14 812.281 1006.94 811.189 1011.15L803.804 1039.67L786.31 1101.31H561.07V1162C561.07 1236.01 501.076 1296 427.069 1296H397.041C323.034 1296 263.041 1236.01 263.041 1162V1101.31H37.1758L19.6814 1039.67L12.2968 1011.15C11.2048 1006.94 8.88564 1003.14 5.63325 1000.24L3.68337 998.505C1.34034 996.418 0.000243187 993.429 0.000243187 990.292L0.000243187 987.483H0L0 308.517H1.08585L4.73175 306.59C8.36581 304.67 11.3366 301.699 13.2565 298.064C14.6038 295.514 15.3081 292.673 15.3081 289.788V280.561L15.3081 252.032L15.3081 194.974L252.732 194.974L270.226 256.62L277.611 285.133C278.703 289.349 281.022 293.147 284.274 296.044L286.224 297.781C288.567 299.868 289.907 302.857 289.907 305.995V308.517L532.953 308.517V305.995C532.953 302.857 534.293 299.868 536.636 297.781L538.586 296.044C541.839 293.147 544.158 289.349 545.25 285.133L552.635 256.62L570.129 194.974L795.369 194.974V134Z"/>
</mask>
<path d="M1088.4 134H1090.4H1088.4ZM1088.4 308.801H1086.4V310.088L1087.57 310.621L1088.4 308.801ZM1164 343.21H1166V341.923L1164.83 341.39L1164 343.21ZM1164 951.355L1164.86 953.163L1166 952.621V951.355H1164ZM1088.4 987.186L1087.54 985.379L1086.4 985.921V987.186H1088.4ZM1088.4 987.483V989.483H1090.4V987.483H1088.4ZM823.485 987.483V985.483H821.485V987.483H823.485ZM819.802 998.505L821.132 999.998L819.802 998.505ZM817.852 1000.24L819.182 1001.74L817.852 1000.24ZM811.189 1011.15L813.125 1011.65V1011.65L811.189 1011.15ZM803.804 1039.67L805.728 1040.21L805.734 1040.19L805.74 1040.17L803.804 1039.67ZM786.31 1101.31V1103.31H787.821L788.234 1101.86L786.31 1101.31ZM561.07 1101.31V1099.31H559.07V1101.31H561.07ZM263.041 1101.31H265.041V1099.31H263.041V1101.31ZM37.1758 1101.31L35.2517 1101.86L35.6644 1103.31H37.1758L37.1758 1101.31ZM19.6814 1039.67L17.7453 1040.17L17.7511 1040.19L17.7574 1040.21L19.6814 1039.67ZM12.2968 1011.15L10.3607 1011.66V1011.66L12.2968 1011.15ZM5.63325 1000.24L4.30291 1001.74H4.30292L5.63325 1000.24ZM3.68337 998.505L5.01371 997.012H5.01371L3.68337 998.505ZM0.000243187 987.483H2.00024V985.483H0.000243187L0.000243187 987.483ZM0 987.483H-2L-2 989.483H0L0 987.483ZM0 308.517L0 306.517H-2V308.517H0ZM1.08585 308.517L1.08585 310.517H1.5818L2.02028 310.285L1.08585 308.517ZM4.73175 306.59L5.66618 308.358H5.66618L4.73175 306.59ZM13.2565 298.064L11.4881 297.13H11.4881L13.2565 298.064ZM15.3081 194.974V192.974H13.3081V194.974H15.3081ZM252.732 194.974L254.656 194.428L254.243 192.974H252.732V194.974ZM270.226 256.62L272.162 256.118L272.156 256.096L272.15 256.074L270.226 256.62ZM277.611 285.133L279.547 284.631L277.611 285.133ZM284.274 296.044L282.944 297.537H282.944L284.274 296.044ZM286.224 297.781L287.554 296.288H287.554L286.224 297.781ZM289.907 308.517H287.907V310.517H289.907V308.517ZM532.953 308.517V310.517H534.953V308.517H532.953ZM536.636 297.781L535.306 296.288L536.636 297.781ZM538.586 296.044L539.917 297.537L538.586 296.044ZM545.25 285.133L543.314 284.631L545.25 285.133ZM552.635 256.62L550.711 256.074L550.704 256.096L550.698 256.118L552.635 256.62ZM570.129 194.974V192.974H568.617L568.205 194.428L570.129 194.974ZM795.369 194.974V196.974H797.369V194.974H795.369ZM929.369 -2C854.259 -2 793.369 58.8894 793.369 134H797.369C797.369 61.0985 856.468 2 929.369 2V-2ZM954.4 -2L929.369 -2V2L954.4 2V-2ZM1090.4 134C1090.4 58.8893 1029.51 -2 954.4 -2V2C1027.3 2 1086.4 61.0984 1086.4 134H1090.4ZM1090.4 308.801L1090.4 134H1086.4L1086.4 308.801H1090.4ZM1164.83 341.39L1089.23 306.981L1087.57 310.621L1163.17 345.031L1164.83 341.39ZM1166 951.355V343.21H1162V951.355H1166ZM1089.26 988.994L1164.86 953.163L1163.14 949.548L1087.54 985.379L1089.26 988.994ZM1090.4 987.483V987.186H1086.4V987.483H1090.4ZM823.485 989.483L1088.4 989.483V985.483L823.485 985.483V989.483ZM825.485 990.291V987.483H821.485V990.291H825.485ZM821.132 999.998C823.901 997.531 825.485 993.999 825.485 990.291H821.485C821.485 992.858 820.389 995.304 818.472 997.011L821.132 999.998ZM819.182 1001.74L821.132 999.998L818.472 997.011L816.522 998.748L819.182 1001.74ZM813.125 1011.65C814.117 1007.82 816.226 1004.37 819.182 1001.74L816.522 998.748C812.974 1001.91 810.444 1006.05 809.252 1010.65L813.125 1011.65ZM805.74 1040.17L813.125 1011.65L809.252 1010.65L801.868 1039.16L805.74 1040.17ZM788.234 1101.86L805.728 1040.21L801.88 1039.12L784.386 1100.77L788.234 1101.86ZM561.07 1103.31H786.31V1099.31H561.07V1103.31ZM563.07 1162V1101.31H559.07V1162H563.07ZM427.069 1298C502.18 1298 563.07 1237.11 563.07 1162H559.07C559.07 1234.9 499.971 1294 427.069 1294V1298ZM397.041 1298H427.069V1294H397.041V1298ZM261.041 1162C261.041 1237.11 321.93 1298 397.041 1298V1294C324.139 1294 265.041 1234.9 265.041 1162H261.041ZM261.041 1101.31V1162H265.041V1101.31H261.041ZM37.1758 1103.31H263.041V1099.31H37.1758L37.1758 1103.31ZM17.7574 1040.21L35.2517 1101.86L39.0998 1100.77L21.6054 1039.12L17.7574 1040.21ZM10.3607 1011.66L17.7453 1040.17L21.6175 1039.17L14.233 1010.65L10.3607 1011.66ZM4.30292 1001.74C7.25962 1004.37 9.36794 1007.82 10.3607 1011.66L14.233 1010.65C13.0416 1006.05 10.5116 1001.91 6.96359 998.749L4.30292 1001.74ZM2.35303 999.999L4.30291 1001.74L6.96359 998.749L5.01371 997.012L2.35303 999.999ZM-1.99976 990.292C-1.99976 994 -0.416005 997.532 2.35303 999.999L5.01371 997.012C3.09669 995.304 2.00024 992.859 2.00024 990.292H-1.99976ZM-1.99976 987.483L-1.99976 990.292H2.00024L2.00024 987.483H-1.99976ZM0 989.483H0.000243187L0.000243187 985.483H0L0 989.483ZM-2 308.517L-2 987.483H2L2 308.517H-2ZM1.08585 306.517H0L0 310.517H1.08585L1.08585 306.517ZM3.79732 304.822L0.15142 306.749L2.02028 310.285L5.66618 308.358L3.79732 304.822ZM11.4881 297.13C9.75602 300.409 7.07585 303.089 3.79732 304.822L5.66618 308.358C9.65577 306.25 12.9172 302.988 15.0249 298.998L11.4881 297.13ZM13.3081 289.788C13.3081 292.347 12.6833 294.867 11.4881 297.13L15.0249 298.998C16.5243 296.16 17.3081 292.999 17.3081 289.788H13.3081ZM13.3081 280.561V289.788H17.3081V280.561H13.3081ZM13.3081 252.032L13.3081 280.561H17.3081L17.3081 252.032H13.3081ZM13.3081 194.974L13.3081 252.032H17.3081L17.3081 194.974H13.3081ZM252.732 192.974L15.3081 192.974V196.974L252.732 196.974V192.974ZM272.15 256.074L254.656 194.428L250.808 195.52L268.302 257.166L272.15 256.074ZM279.547 284.631L272.162 256.118L268.29 257.121L275.674 285.634L279.547 284.631ZM285.604 294.551C282.648 291.917 280.539 288.464 279.547 284.631L275.674 285.634C276.866 290.234 279.396 294.377 282.944 297.537L285.604 294.551ZM287.554 296.288L285.604 294.551L282.944 297.537L284.894 299.274L287.554 296.288ZM291.907 305.995C291.907 302.286 290.323 298.754 287.554 296.288L284.894 299.274C286.811 300.982 287.907 303.427 287.907 305.995H291.907ZM291.907 308.517V305.995H287.907V308.517H291.907ZM532.953 306.517L289.907 306.517V310.517L532.953 310.517V306.517ZM530.953 305.995V308.517H534.953V305.995H530.953ZM535.306 296.288C532.537 298.754 530.953 302.286 530.953 305.995H534.953C534.953 303.427 536.05 300.982 537.967 299.274L535.306 296.288ZM537.256 294.551L535.306 296.288L537.967 299.274L539.917 297.537L537.256 294.551ZM543.314 284.631C542.321 288.464 540.213 291.917 537.256 294.551L539.917 297.537C543.465 294.377 545.995 290.234 547.186 285.634L543.314 284.631ZM550.698 256.118L543.314 284.631L547.186 285.634L554.571 257.121L550.698 256.118ZM568.205 194.428L550.711 256.074L554.559 257.166L572.053 195.52L568.205 194.428ZM795.369 192.974L570.129 192.974V196.974L795.369 196.974V192.974ZM793.369 134V194.974H797.369V134H793.369Z" fill="#252525" mask="url(#path-1-inside-1_112_7)"/>
</svg>
