<svg width="517" height="981" viewBox="0 0 517 981" fill="none" xmlns="http://www.w3.org/2000/svg">
<path d="M47.4856 24.614V0H258.5H468.327V24.614V24.614C465.796 24.614 464.194 27.332 465.421 29.5462L469.223 36.4064C500.559 92.9557 517 156.545 517 221.196V245.25V490.5V735.75V874.007C517 879.992 515.448 885.874 512.496 891.079V891.079C508.838 897.529 503.521 902.882 497.095 906.582L486.001 912.97C476.69 918.331 468.569 925.532 462.132 934.134L453.412 945.786C449.373 951.184 444.036 955.474 437.897 958.258V958.258C404.847 973.246 368.977 981 332.688 981H258.5L167.326 978.487C142.235 977.795 117.461 972.706 94.1303 963.451V963.451C78.7709 957.359 65.9903 945.84 58.2302 931.252V931.252C54.7337 924.679 49.3226 919.221 42.7579 915.709L24.4447 905.911C18.2937 902.62 12.8157 898.203 8.29564 892.889V892.889C2.94057 886.594 0 878.599 0 870.334V735.75V490.5V245.25V213.467C0 153.84 14.8105 95.1471 43.1014 42.6592L50.2931 29.3165C51.4384 27.1916 49.8995 24.614 47.4856 24.614V24.614Z" fill="#252525"/>
</svg>
