<svg width="1165" height="918" viewBox="0 0 1165 918" fill="none" xmlns="http://www.w3.org/2000/svg">
<path fill-rule="evenodd" clip-rule="evenodd" d="M612.028 16.2863C602.461 6.74602 582.426 0 582.426 0V267.51L494.309 79.6542C490.069 70.6131 477.284 70.4055 472.752 79.3041L376.796 267.706V0C376.796 0 357.523 6.74602 348.127 16.2863C338.73 25.8266 328.673 48.859 328.673 48.859L319.457 0H58.3624L49.1473 48.859C49.1473 48.859 39.2898 25.8266 29.6932 16.2863C20.0966 6.74602 0 0 0 0L8.39233e-05 894.891H89.604V839.75H287.192V894.891H376.796L376.796 731.218L504.488 828.512L452.32 902.082C447.624 908.704 452.359 917.866 460.477 917.866H583.575L583.574 732.108L674.964 837.165V860.064C674.964 867.244 680.785 873.064 687.964 873.064H853.69C860.87 873.064 866.69 867.244 866.69 860.064V837.165L956.924 730.822L956.924 917.866H1080.02C1088.14 917.866 1092.87 908.704 1088.18 902.082L1036.23 828.823L1164 731V270H1164.13L1164 269.72V269H1163.66L1075.2 79.3728C1070.96 70.2988 1058.13 70.0946 1053.61 79.0291L958.073 267.879V0C958.073 0 938.859 6.74602 929.491 16.2863C920.123 25.8266 910.096 48.859 910.096 48.859L900.909 0H640.61L631.423 48.859C631.423 48.859 621.596 25.8266 612.028 16.2863Z" fill="#252525"/>
</svg>
