<svg width="1165" height="918" viewBox="0 0 1165 918" fill="none" xmlns="http://www.w3.org/2000/svg">
<path d="M581.973 267.723L582.926 267.51V0.703907C582.992 0.727262 583.062 0.752356 583.137 0.779171C583.7 0.981076 584.516 1.28049 585.526 1.66968C587.546 2.44821 590.339 3.5853 593.429 5.0191C599.624 7.89346 606.957 11.9352 611.675 16.6404C616.4 21.3517 621.219 29.4336 624.871 36.3829C626.693 39.8491 628.216 43.0186 629.285 45.3215C629.819 46.4729 630.239 47.4072 630.525 48.0533C630.668 48.3764 630.778 48.6273 630.852 48.7973C630.889 48.8823 630.917 48.947 630.935 48.9904L630.956 49.0392L630.962 49.0514L630.963 49.0544L630.963 49.0552L631.61 50.571L631.915 48.9514L641.025 0.5H900.495L909.605 48.9514L909.906 50.55L910.555 49.0586L910.555 49.0577L910.556 49.0547L910.562 49.0425L910.583 48.9936C910.602 48.9502 910.631 48.8855 910.668 48.8004C910.744 48.6304 910.855 48.3794 911.001 48.0563C911.293 47.41 911.72 46.4755 912.262 45.324C913.346 43.0208 914.888 39.8509 916.723 36.3841C920.4 29.4342 925.22 21.3498 929.848 16.6367C934.469 11.9308 941.549 7.88962 947.512 5.01598C950.487 3.58242 953.171 2.44553 955.111 1.66717C956.08 1.27806 956.864 0.978723 957.404 0.776887C957.463 0.754748 957.52 0.733782 957.573 0.714001V267.879L958.519 268.105L1054.06 79.2549C1058.39 70.6926 1070.69 70.8883 1074.74 79.5842L1163.21 269.211L1163.35 269.5H1163.5V269.72V269.83V270V730.753L1035.93 828.426L1035.54 828.719L1035.82 829.112L1087.77 902.371C1092.23 908.662 1087.73 917.366 1080.02 917.366H957.424L957.424 730.822V729.46L956.543 730.499L866.309 836.841L866.19 836.981V837.165V860.064C866.19 866.967 860.594 872.564 853.69 872.564H687.964C681.061 872.564 675.464 866.967 675.464 860.064V837.165V836.978L675.342 836.837L583.952 731.78L583.074 730.772V732.108L583.075 917.366H460.477C452.765 917.366 448.267 908.662 452.728 902.371L504.896 828.801L505.175 828.407L504.791 828.114L377.099 730.821L376.296 730.209V731.218L376.296 894.391H287.692V839.75V839.25H287.192H89.604H89.104V839.75V894.391H0.500084L0.5 0.703189C0.566641 0.726794 0.63802 0.752182 0.713992 0.779334C1.27894 0.981245 2.09774 1.28066 3.1107 1.66987C5.13698 2.44841 7.93838 3.58552 11.0379 5.01935C17.2516 7.89375 24.6075 11.9356 29.3406 16.6409C34.0798 21.3523 38.9134 29.4342 42.5766 36.3834C44.4038 39.8497 45.9322 43.0192 47.0038 45.3221C47.5395 46.4734 47.9609 47.4077 48.2481 48.0538C48.3917 48.3769 48.5018 48.6278 48.5759 48.7978C48.6129 48.8828 48.641 48.9475 48.6597 48.9909L48.6808 49.0397L48.686 49.0519L48.6873 49.0549L48.6876 49.0556C48.6876 49.0557 48.6876 49.0557 49.1473 48.859L48.6876 49.0557L49.3341 50.5663L49.6386 48.9517L58.7769 0.5H319.043L328.181 48.9517L328.482 50.5453L329.131 49.0591L328.673 48.859C329.131 49.0591 329.131 49.059 329.131 49.0589L329.131 49.0582L329.132 49.0552L329.138 49.0431L329.159 48.9941C329.178 48.9507 329.207 48.886 329.245 48.801C329.32 48.6309 329.432 48.3799 329.579 48.0568C329.871 47.4106 330.299 46.4761 330.843 45.3246C331.93 43.0213 333.478 39.8514 335.318 36.3847C339.006 29.4348 343.841 21.3504 348.483 16.6372C353.118 11.9313 360.22 7.88993 366.202 5.01624C369.186 3.58265 371.878 2.44574 373.824 1.66737C374.796 1.27825 375.582 0.978904 376.124 0.777062C376.184 0.754576 376.242 0.733301 376.296 0.713247V267.706L377.241 267.933L473.198 79.531C477.541 71.0032 489.793 71.2022 493.857 79.8665L581.973 267.723Z" fill="#252525" stroke="#EFE4E0"/>
</svg>
