<svg width="253" height="326" viewBox="0 0 253 326" fill="none" xmlns="http://www.w3.org/2000/svg">
<path fill-rule="evenodd" clip-rule="evenodd" d="M232.514 102.796C245.47 92.3592 253 79.8919 253 66.5C253 29.7731 196.364 0 126.5 0C56.636 0 0 29.7731 0 66.5C0 80.0764 7.7391 92.7025 21.0247 103.226C21.0684 105.217 21.1701 107.091 21.33 108.85C21.55 111.27 21.99 113.36 22.65 115.12C28.59 115.34 33.21 116.33 36.51 118.09C39.81 119.85 42.12 122.71 43.44 126.67C44.76 130.63 45.42 136.35 45.42 143.83V283.09C45.42 290.35 44.76 296.07 43.44 300.25C42.12 304.21 39.81 307.07 36.51 308.83C33.21 310.37 28.59 311.36 22.65 311.8C21.99 313.56 21.55 315.65 21.33 318.07C21.11 320.27 21 322.91 21 325.99C26.72 325.55 33.21 325.22 40.47 325H60.93H80.73C87.55 325.22 94.26 325.55 100.86 325.99C100.86 322.91 100.75 320.27 100.53 318.07C100.31 315.65 99.87 313.56 99.21 311.8C93.49 311.36 88.87 310.37 85.35 308.83C82.05 307.07 79.74 304.21 78.42 300.25C77.3015 296.708 76.6569 292.06 76.4861 286.307L177.09 164.852V283.09C177.09 290.35 176.43 296.07 175.11 300.25C173.79 304.21 171.48 307.07 168.18 308.83C164.88 310.37 160.26 311.36 154.32 311.8C153.66 313.56 153.22 315.65 153 318.07C152.78 320.27 152.67 322.91 152.67 325.99C158.39 325.55 164.88 325.22 172.14 325H192.6H212.4C219.22 325.22 225.93 325.55 232.53 325.99C232.53 322.91 232.42 320.27 232.2 318.07C231.98 315.65 231.54 313.56 230.88 311.8C225.16 311.36 220.54 310.37 217.02 308.83C213.72 307.07 211.41 304.21 210.09 300.25C208.77 296.07 208.11 290.35 208.11 283.09V143.83C208.11 136.35 208.77 130.63 210.09 126.67C211.41 122.71 213.72 119.85 217.02 118.09C220.54 116.33 225.16 115.34 230.88 115.12C231.54 113.36 231.98 111.27 232.2 108.85C232.371 106.965 232.476 104.947 232.514 102.796ZM175.465 127.835C175.353 127.431 175.234 127.043 175.11 126.67C173.79 122.71 171.48 119.85 168.18 118.09C164.88 116.33 160.26 115.34 154.32 115.12C153.66 113.36 153.22 111.27 153 108.85C152.78 106.43 152.67 103.79 152.67 100.93L165.21 101.59C169.61 101.59 174.12 101.7 178.74 101.92H192.6H206.46C210.86 101.7 215.15 101.59 219.33 101.59L232.53 100.93C232.53 101.562 232.525 102.184 232.514 102.796C218.768 113.869 198.914 122.656 175.465 127.835ZM175.465 127.835C176.355 131.028 176.879 135.195 177.038 140.336L76.44 261.947V143.83C76.44 137.117 76.9715 131.822 78.0345 127.945C92.9613 131.202 109.331 133 126.5 133C143.861 133 160.404 131.162 175.465 127.835ZM78.0345 127.945C54.6736 122.847 34.8472 114.174 21.0247 103.226C21.0082 102.477 21 101.712 21 100.93L33.54 101.59C37.94 101.59 42.45 101.7 47.07 101.92H60.93H74.79C79.19 101.7 83.48 101.59 87.66 101.59L100.86 100.93C100.86 103.79 100.75 106.43 100.53 108.85C100.31 111.27 99.87 113.36 99.21 115.12C93.49 115.34 88.87 116.33 85.35 118.09C82.05 119.85 79.74 122.71 78.42 126.67C78.2845 127.076 78.156 127.501 78.0345 127.945ZM82.38 72.8798C93.6 80.3598 107.9 84.0998 125.28 84.0998C137.16 84.0998 147.83 82.4498 157.29 79.1498C166.75 75.6298 174.23 70.4598 179.73 63.6398C185.23 56.8198 187.98 48.3498 187.98 38.2298C184.46 36.9098 180.17 36.0298 175.11 35.5898C170.05 35.1498 165.21 35.1498 160.59 35.5898C159.71 47.6898 156.85 56.7098 152.01 62.6498C147.17 68.3698 139.36 71.2298 128.58 71.2298C117.8 71.2298 109.66 68.3698 104.16 62.6498C98.88 56.7098 95.25 47.6898 93.27 35.5898C88.43 35.1498 83.59 35.2598 78.75 35.9198C73.91 36.5798 69.62 37.6798 65.88 39.2198C65.88 53.9598 71.38 65.1798 82.38 72.8798Z" fill="#252525"/>
</svg>
