<svg width="245" height="235" viewBox="0 0 245 235" fill="none" xmlns="http://www.w3.org/2000/svg">
<path fill-rule="evenodd" clip-rule="evenodd" d="M0.809981 217.14C0.589981 219.34 0.47998 221.98 0.47998 225.06L11.7 224.4C15.44 224.4 20.06 224.29 25.56 224.07H42.553C55.6899 230.419 71.0658 234.07 87.5 234.07C135.825 234.07 175 202.506 175 163.57C175 124.634 135.825 93.0698 87.5 93.0698C76.49 93.0698 65.955 94.7082 56.25 97.6989V49.5C56.25 39.82 57.24 32.56 59.22 27.72C61.2 22.66 64.39 19.25 68.79 17.49C73.19 15.51 78.8 14.41 85.62 14.19C86.28 12.43 86.72 10.34 86.94 7.92C87.16 5.5 87.27 2.86 87.27 0C83.97 0.219997 80.01 0.439994 75.39 0.659992C70.99 0.659992 66.26 0.76999 61.2 0.989987H45.69C37.99 0.989987 29.63 0.879989 20.61 0.659992C11.81 0.439994 5.20998 0.219997 0.809981 0C0.809981 2.86 0.919981 5.5 1.13998 7.92C1.35998 10.34 1.79998 12.43 2.45998 14.19C8.39998 14.41 13.02 15.4 16.32 17.16C19.62 18.92 21.93 21.78 23.25 25.74C24.57 29.7 25.23 35.42 25.23 42.9V114.042C9.62975 126.773 0 144.265 0 163.57C0 179.639 6.6729 194.453 17.9079 206.311C17.3108 206.787 16.6715 207.207 15.99 207.57C12.69 209.33 8.06998 210.43 2.12998 210.87C1.46998 212.63 1.02998 214.72 0.809981 217.14ZM17.9079 206.311C24.6374 213.413 33.0036 219.455 42.553 224.07H48H83.97C100.47 224.07 114.22 221.21 125.22 215.49C136.22 209.77 144.47 201.85 149.97 191.73C155.69 181.61 158.55 170.06 158.55 157.08C158.55 142.56 155.25 131.12 148.65 122.76C142.05 114.18 133.03 108.13 121.59 104.61C110.15 100.87 96.95 99 81.99 99C77.15 99 72.2 99.22 67.14 99.66C63.5698 99.8223 59.9398 100.104 56.25 100.506V97.6989C44.4773 101.327 33.9261 106.945 25.23 114.042V178.53C25.23 187.11 24.46 193.71 22.92 198.33C21.8726 201.821 20.2019 204.482 17.9079 206.311ZM56.25 114.77V178.53C56.25 186.45 56.91 192.72 58.23 197.34C59.77 201.96 62.3 205.26 65.82 207.24C69.34 209 74.18 209.88 80.34 209.88C94.64 209.88 105.2 205.92 112.02 198C119.06 189.86 122.58 178.64 122.58 164.34C122.58 154 120.93 145.53 117.63 138.93C114.55 132.33 110.48 127.27 105.42 123.75C100.58 120.01 95.41 117.48 89.91 116.16C84.41 114.62 79.35 113.85 74.73 113.85C72.31 113.85 68.9 113.96 64.5 114.18C61.7006 114.327 58.9506 114.524 56.25 114.77ZM186.93 25.74C188.25 29.7 188.91 35.42 188.91 42.9V182.16C188.91 189.42 188.25 195.14 186.93 199.32C185.61 203.28 183.3 206.14 180 207.9C176.7 209.44 172.08 210.43 166.14 210.87C165.48 212.63 165.04 214.72 164.82 217.14C164.6 219.34 164.49 221.98 164.49 225.06C170.21 224.62 176.7 224.29 183.96 224.07H204.42H224.22C231.04 224.29 237.75 224.62 244.35 225.06C244.35 221.98 244.24 219.34 244.02 217.14C243.8 214.72 243.36 212.63 242.7 210.87C236.98 210.43 232.36 209.44 228.84 207.9C225.54 206.14 223.23 203.28 221.91 199.32C220.59 195.14 219.93 189.42 219.93 182.16V42.9C219.93 35.42 220.59 29.7 221.91 25.74C223.23 21.78 225.54 18.92 228.84 17.16C232.36 15.4 236.98 14.41 242.7 14.19C243.36 12.43 243.8 10.34 244.02 7.92C244.24 5.5 244.35 2.86 244.35 0L231.15 0.659992C226.97 0.659992 222.68 0.76999 218.28 0.989987H204.42H190.56C185.94 0.76999 181.43 0.659992 177.03 0.659992L164.49 0C164.49 2.86 164.6 5.5 164.82 7.92C165.04 10.34 165.48 12.43 166.14 14.19C172.08 14.41 176.7 15.4 180 17.16C183.3 18.92 185.61 21.78 186.93 25.74Z" fill="#252525"/>
</svg>
