<svg width="219" height="255" viewBox="0 0 219 255" fill="none" xmlns="http://www.w3.org/2000/svg">
<path d="M108.9 242.97C87.12 242.97 68.09 237.91 51.81 227.79C35.53 217.67 22.77 203.92 13.53 186.54C4.51 169.16 0 149.58 0 127.8C0 110.86 2.75 95.4602 8.25 81.6002C13.97 67.7402 21.78 55.7502 31.68 45.6302C41.58 35.5102 53.13 27.7002 66.33 22.2002C79.53 16.7002 93.72 13.9502 108.9 13.9502C130.02 13.9502 148.72 18.7902 165 28.4702C181.5 37.9302 194.48 51.2402 203.94 68.4002C213.4 85.3402 218.13 105.14 218.13 127.8C218.13 144.08 215.49 159.26 210.21 173.34C204.93 187.2 197.34 199.41 187.44 209.97C177.76 220.31 166.21 228.45 152.79 234.39C139.59 240.11 124.96 242.97 108.9 242.97ZM115.5 226.8C129.8 226.8 142.01 222.84 152.13 214.92C162.47 206.78 170.39 195.89 175.89 182.25C181.39 168.39 184.14 153.1 184.14 136.38C184.14 116.58 180.51 98.6502 173.25 82.5902C166.21 66.3102 156.53 53.4402 144.21 43.9802C131.89 34.5202 117.81 29.7902 101.97 29.7902C88.99 29.7902 77.33 33.5302 66.99 41.0102C56.87 48.2702 48.84 58.6102 42.9 72.0302C36.96 85.4502 33.99 101.07 33.99 118.89C33.99 132.75 35.75 146.17 39.27 159.15C42.79 172.13 47.96 183.68 54.78 193.8C61.82 203.92 70.4 211.95 80.52 217.89C90.64 223.83 102.3 226.8 115.5 226.8Z" fill="#252525"/>
<line x1="73.8903" y1="0.580435" x2="147.89" y2="254.58" stroke="#252525" stroke-width="3"/>
</svg>
