<svg width="199" height="253" viewBox="0 0 199 253" fill="none" xmlns="http://www.w3.org/2000/svg">
<path fill-rule="evenodd" clip-rule="evenodd" d="M119.941 217.47C119.721 219.89 119.611 222.31 119.611 224.73C124.451 224.29 129.291 223.96 134.131 223.74H148.321H158.881H179.341C187.261 223.96 193.641 224.29 198.481 224.73C198.481 222.31 198.371 219.89 198.151 217.47C197.931 215.05 197.491 212.74 196.831 210.54C190.891 210.1 186.271 209.11 182.971 207.57C179.671 205.81 177.361 202.95 176.041 198.99C174.721 194.81 174.061 189.09 174.061 181.83V42.57C174.061 35.09 174.721 29.37 176.041 25.41C177.361 21.23 179.671 18.26 182.971 16.5C186.271 14.74 190.891 13.86 196.831 13.86C197.491 11.66 197.931 9.46 198.151 7.26C198.371 5.06001 198.481 2.64001 198.481 0C196.281 0 192.981 0.109999 188.581 0.329996C184.401 0.329996 179.781 0.439994 174.721 0.659992H161.191C152.391 0.659992 144.141 0.549993 136.441 0.329996C128.741 0.109999 122.471 0 117.631 0C97.3914 0 81.2214 2.75 69.1214 8.24999C57.0214 13.75 48.3314 21.12 43.0514 30.36C37.7714 39.38 35.1314 49.17 35.1314 59.73C35.1314 70.51 37.7714 80.19 43.0514 88.77C46.8155 94.4914 51.8161 99.4915 58.0532 103.77C39.743 111.355 22.0016 128.728 10.7692 152.429C-8.26866 192.599 -1.39874 235.734 26.1136 248.773C53.6259 261.812 91.3623 239.817 110.4 199.647C122.991 173.08 124.25 145.217 115.7 125.62C123.225 123.713 132.339 122.76 143.041 122.76V181.83C143.041 189.09 142.381 194.81 141.061 198.99C139.741 202.95 137.541 205.81 134.461 207.57C131.381 209.11 126.981 210.1 121.261 210.54C120.601 212.52 120.161 214.83 119.941 217.47ZM112.115 118.8C113.456 120.937 114.652 123.216 115.7 125.62C113.326 126.222 111.109 126.918 109.051 127.71C100.691 131.01 94.2014 135.41 89.5814 140.91C85.1814 146.41 81.8814 152.68 79.6814 159.72C77.7014 166.76 76.0514 173.91 74.7314 181.17C73.1914 190.85 71.2114 199.54 68.7914 207.24C66.3714 214.94 62.1914 221.43 56.2514 226.71C50.9714 225.83 46.3514 225.17 42.3914 224.73C38.4314 224.29 34.2514 223.96 29.8514 223.74H13.3514C12.9114 222.2 12.5814 220.66 12.3614 219.12L11.7014 214.5V210.54C19.8414 209.66 26.1114 207.24 30.5114 203.28C34.9114 199.32 38.2114 194.37 40.4114 188.43C42.6114 182.49 44.4814 176.22 46.0214 169.62C47.7814 163.02 49.7614 156.53 51.9614 150.15C54.1614 143.77 57.3514 137.94 61.5314 132.66C65.9314 127.16 71.8714 122.87 79.3514 119.79C82.7158 118.348 86.5422 117.221 90.8307 116.409C81.9771 114.714 74.1907 112.321 67.4714 109.23C64.069 107.564 60.9296 105.744 58.0532 103.77C70.7772 98.5 83.7758 97.9568 95.0558 103.303C100.699 105.977 105.474 109.918 109.335 114.84C110.322 116.098 111.248 117.419 112.115 118.8ZM143.041 16.7978V107.25C140.401 107.69 137.871 108.02 135.451 108.24C133.251 108.46 130.941 108.57 128.521 108.57C117.301 108.57 107.071 106.92 97.8314 103.62C88.5914 100.1 81.2214 94.6 75.7214 87.12C70.2214 79.64 67.4714 69.63 67.4714 57.09C67.4714 44.77 71.1014 34.54 78.3614 26.4C85.6214 18.26 98.3814 14.19 116.641 14.19C121.041 14.19 125.551 14.41 130.171 14.85C134.461 15.24 138.751 15.8893 143.041 16.7978Z" fill="#252525"/>
</svg>
