<svg width="261" height="314" viewBox="0 0 261 314" fill="none" xmlns="http://www.w3.org/2000/svg">
<path fill-rule="evenodd" clip-rule="evenodd" d="M51.81 213.84C68.09 223.96 87.12 229.02 108.9 229.02C111.688 229.33 114.336 229.735 116.845 230.237C108.111 238.844 103 249.268 103 260.5C103 290.047 138.37 314 182 314C225.63 314 261 290.047 261 260.5C261 230.953 225.63 207 182 207C179.693 207 177.409 207.067 175.152 207.198C179.537 203.812 183.633 200.086 187.44 196.02C197.34 185.46 204.93 173.25 210.21 159.39C215.49 145.31 218.13 130.13 218.13 113.85C218.13 91.19 213.4 71.39 203.94 54.45C194.48 37.29 181.5 23.98 165 14.52C148.72 4.84 130.02 0 108.9 0C93.72 0 79.53 2.75 66.33 8.25001C53.13 13.75 41.58 21.56 31.68 31.68C21.78 41.8 13.97 53.79 8.25 67.65C2.75 81.51 0 96.91 0 113.85C0 135.63 4.51 155.21 13.53 172.59C22.77 189.97 35.53 203.72 51.81 213.84ZM148.517 222.173C153.83 223.68 158.665 225.522 163.02 227.7C169.62 231.22 175.78 234.85 181.5 238.59C187.22 242.55 192.94 246.18 198.66 249.48C204.38 252.78 210.65 255.31 217.47 257.07C224.29 258.83 232.21 259.27 241.23 258.39C241.23 260.37 241.01 262.46 240.57 264.66C240.35 267.08 239.91 269.39 239.25 271.59C232.87 273.57 226.49 275.66 220.11 277.86C213.95 280.06 206.69 283.03 198.33 286.77C189.75 284.57 182.71 281.38 177.21 277.2C171.71 273.02 166.76 268.4 162.36 263.34C158.18 258.28 153.89 253.33 149.49 248.49C145.09 243.65 139.7 239.47 133.32 235.95C128.737 233.421 123.245 231.517 116.845 230.237C117.383 229.707 117.935 229.183 118.5 228.667C119.887 227.4 121.354 226.177 122.897 225C135.949 215.041 154.405 208.405 175.152 207.198C168.387 212.422 160.932 216.836 152.79 220.44C151.382 221.05 149.958 221.628 148.517 222.173ZM152.13 200.97C142.01 208.89 129.8 212.85 115.5 212.85C102.3 212.85 90.64 209.88 80.52 203.94C70.4 198 61.82 189.97 54.78 179.85C47.96 169.73 42.79 158.18 39.27 145.2C35.75 132.22 33.99 118.8 33.99 104.94C33.99 87.12 36.96 71.5 42.9 58.08C48.84 44.66 56.87 34.32 66.99 27.06C77.33 19.58 88.99 15.84 101.97 15.84C117.81 15.84 131.89 20.57 144.21 30.03C156.53 39.49 166.21 52.36 173.25 68.64C180.51 84.7 184.14 102.63 184.14 122.43C184.14 139.15 181.39 154.44 175.89 168.3C170.39 181.94 162.47 192.83 152.13 200.97Z" fill="#252525"/>
</svg>
