<svg width="407" height="226" viewBox="0 0 407 226" fill="none" xmlns="http://www.w3.org/2000/svg">
<path fill-rule="evenodd" clip-rule="evenodd" d="M132.39 225.06C132.39 221.98 132.5 219.34 132.72 217.14C132.94 214.72 133.38 212.63 134.04 210.87C141.08 210.43 146.69 209.33 150.87 207.57C155.05 205.59 158.13 202.18 160.11 197.34C162.09 192.28 163.08 185.02 163.08 175.56V147.334C174.945 144.025 185.555 139.609 194.43 134.343V182.16C194.43 189.42 195.09 195.14 196.41 199.32C197.73 203.28 199.93 206.14 203.01 207.9C206.31 209.44 210.82 210.43 216.54 210.87C217.2 212.63 217.64 214.72 217.86 217.14C218.08 219.34 218.19 221.98 218.19 225.06C214.01 224.62 207.52 224.29 198.72 224.07H173.97H158.46C153.4 224.29 148.67 224.4 144.27 224.4C139.87 224.62 135.91 224.84 132.39 225.06ZM194.43 54.7968C212.192 65.3361 223 79.2794 223 94.5698C223 109.86 212.192 123.803 194.43 134.343V54.7968ZM163.075 41.804C163.013 34.859 162.355 29.5043 161.1 25.74C159.78 21.78 157.47 18.92 154.17 17.16C151.09 15.4 146.69 14.41 140.97 14.19C140.31 12.43 139.87 10.34 139.65 7.92C139.43 5.5 139.32 2.86 139.32 0C143.28 0.219997 147.35 0.439994 151.53 0.659992C155.93 0.659992 160.33 0.76999 164.73 0.989987H178.59H192.45C196.85 0.76999 201.14 0.659992 205.32 0.659992C209.72 0.439994 214.01 0.219997 218.19 0C218.19 2.86 218.08 5.5 217.86 7.92C217.64 10.34 217.2 12.43 216.54 14.19C210.82 14.41 206.31 15.4 203.01 17.16C199.93 18.92 197.73 21.78 196.41 25.74C195.09 29.7 194.43 35.42 194.43 42.9V54.7968C185.554 49.5304 174.942 45.1139 163.075 41.804ZM75.179 38.298C86.5641 36.2058 98.7835 35.0698 111.5 35.0698C130.108 35.0698 147.652 37.5023 163.075 41.804C163.078 42.165 163.08 42.5304 163.08 42.9V112.823C156.404 113.787 149.364 114.57 141.96 115.17C134.04 115.61 127.77 115.83 123.15 115.83C111.05 115.83 101.48 113.74 94.4399 109.56C87.3999 105.16 82.3399 97.9 79.2599 87.78C76.3999 77.66 74.9699 64.02 74.9699 46.86C74.9699 43.7272 75.0396 40.8732 75.179 38.298ZM75.179 38.298C63.7866 40.3916 53.2293 43.4426 43.8449 47.2708C43.7661 45.8279 43.691 44.371 43.6199 42.9C43.3999 36.08 42.8499 30.69 41.9699 26.73C41.0899 22.77 39.1099 19.8 36.0299 17.82C33.1699 15.84 28.3299 14.63 21.5099 14.19C20.8499 12.43 20.4099 10.34 20.1899 7.92C19.9699 5.5 19.8599 2.86 19.8599 0C23.8199 0.219997 27.9999 0.439994 32.3999 0.659992C36.7999 0.659992 41.1999 0.76999 45.5999 0.989987H59.4599H72.9899C77.3899 0.76999 81.6799 0.659992 85.8599 0.659992C90.2599 0.439994 94.5499 0.219997 98.7299 0C98.7299 2.86 98.6199 5.5 98.3999 7.92C98.1799 10.34 97.7399 12.43 97.0799 14.19C90.9199 14.63 86.1899 15.73 82.8899 17.49C79.8099 19.25 77.7199 22.44 76.6199 27.06C75.9115 29.8936 75.4312 33.6396 75.179 38.298ZM43.8449 47.2708C44.4972 59.207 45.4122 70.18 46.5899 80.19C47.9099 91.19 50.6599 100.65 54.8399 108.57C59.2399 116.49 65.9499 122.65 74.9699 127.05C83.9899 131.23 96.5299 133.32 112.59 133.32C121.83 133.32 131.07 132.77 140.31 131.67C148.72 130.469 156.31 128.994 163.08 127.245V147.334C147.656 151.637 130.11 154.07 111.5 154.07C49.9202 154.07 0 127.431 0 94.5698C0 75.2851 17.1927 58.1432 43.8449 47.2708ZM395.382 225.06C390.542 224.62 385.042 224.29 378.882 224.07H360.072H344.232C339.172 224.29 334.552 224.4 330.372 224.4C326.412 224.62 323.002 224.84 320.142 225.06C320.142 222.64 320.252 220.22 320.472 217.8C320.692 215.38 321.132 213.07 321.792 210.87C330.372 210.87 336.422 209.33 339.942 206.25C343.682 203.17 345.552 197.01 345.552 187.77V177.179C356.723 175.26 366.883 172.451 375.582 168.95V182.16C375.582 193.6 377.012 201.3 379.872 205.26C382.952 209 387.572 210.87 393.732 210.87C394.392 212.85 394.832 214.94 395.052 217.14C395.272 219.34 395.382 221.98 395.382 225.06ZM375.903 106.319C375.689 108.872 375.582 111.712 375.582 114.84V168.95C394.889 161.179 407 149.997 407 137.57C407 125.212 395.023 114.085 375.903 106.319ZM343.672 97.6474C355.723 99.5903 366.649 102.561 375.903 106.319C376.471 99.5372 377.794 94.7874 379.872 92.07C382.952 88.11 387.572 86.13 393.732 86.13C394.392 84.15 394.832 82.06 395.052 79.86C395.272 77.44 395.382 74.8 395.382 71.94C390.762 72.16 385.372 72.38 379.212 72.6C373.272 72.82 367.002 72.93 360.402 72.93C353.802 72.93 347.422 72.82 341.262 72.6C335.322 72.38 330.152 72.16 325.752 71.94C325.752 74.8 325.862 77.44 326.082 79.86C326.302 82.06 326.742 84.15 327.402 86.13C333.562 86.13 338.072 88.11 340.932 92.07C342.047 93.4243 342.961 95.2834 343.672 97.6474ZM283.153 96.8005C282.072 100.371 281.532 105.064 281.532 110.88C281.532 125.4 284.062 136.4 289.122 143.88C294.402 151.14 303.752 154.77 317.172 154.77C320.692 154.77 325.202 154.33 330.702 153.45C336.034 152.63 340.984 151.331 345.552 149.555V114.84C345.552 107.543 344.925 101.812 343.672 97.6474C333.328 95.9799 322.155 95.0698 310.5 95.0698C301.001 95.0698 291.823 95.6742 283.153 96.8005ZM251.239 104.025C251.414 105.922 251.502 107.987 251.502 110.22C251.502 121.44 252.712 131.56 255.132 140.58C257.552 149.6 262.612 156.75 270.312 162.03C278.012 167.09 289.892 169.62 305.952 169.62C313.652 169.62 320.912 168.96 327.732 167.64C334.353 166.399 340.293 164.768 345.552 162.748V177.179C334.687 179.046 322.865 180.07 310.5 180.07C257.205 180.07 214 161.042 214 137.57C214 123.936 228.576 111.802 251.239 104.025ZM251.239 104.025C260.64 100.799 271.432 98.3231 283.153 96.8005C283.83 94.5629 284.72 92.7661 285.822 91.41C288.902 87.89 293.522 86.13 299.682 86.13C300.342 84.15 300.782 82.06 301.002 79.86C301.222 77.44 301.332 74.8 301.332 71.94C296.932 72.16 291.652 72.38 285.492 72.6C279.552 72.82 273.282 72.93 266.682 72.93C260.082 72.93 253.702 72.82 247.542 72.6C241.602 72.38 236.322 72.16 231.702 71.94C231.702 74.8 231.812 77.44 232.032 79.86C232.252 82.06 232.692 84.15 233.352 86.13C239.732 86.13 244.352 87.89 247.212 91.41C249.364 94.0584 250.706 98.2635 251.239 104.025Z" fill="#252525"/>
</svg>
