<svg width="315" height="229" viewBox="0 0 315 229" fill="none" xmlns="http://www.w3.org/2000/svg">
<path fill-rule="evenodd" clip-rule="evenodd" d="M8.58 2.30999C5.5 2.08999 2.64 1.87 0 1.65C0 3.85 0.11 6.27 0.33 8.91C0.55 11.33 0.99 13.64 1.65 15.84C5.61 16.28 8.69 17.27 10.89 18.81C13.31 20.13 15.73 23.32 18.15 28.38C20.57 33.44 23.76 41.91 27.72 53.79C29.4579 58.9643 31.1888 64.1456 32.9125 69.3341C18.061 78.1088 8.75 90.7139 8.75 104.72C8.75 125.76 29.7607 143.638 59.0013 150.12C67.2304 176.31 75.2833 202.5 83.16 228.69C84.92 228.69 86.57 228.58 88.11 228.36C89.87 228.36 91.52 228.14 93.06 227.7C94.82 227.48 96.25 227.15 97.35 226.71L124.838 144.551C144.692 135.929 157.75 121.307 157.75 104.72C157.75 95.4534 153.674 86.8 146.615 79.4634L155.373 53.285C162.118 70.7528 168.957 89.0711 175.89 108.24C183.59 128.7 191.18 149.16 198.66 169.62C206.14 190.08 213.18 209.77 219.78 228.69C222.2 228.69 224.51 228.47 226.71 228.03C229.13 227.81 231.22 227.37 232.98 226.71L284.46 63.69C288.42 51.59 291.72 42.24 294.36 35.64C297 29.04 299.64 24.31 302.28 21.45C305.14 18.59 308.44 16.72 312.18 15.84C313.06 13.42 313.61 11 313.83 8.57999C314.27 6.15999 314.49 3.85 314.49 1.65C310.09 1.87 305.03 2.08999 299.31 2.30999C293.59 2.52999 288.2 2.63999 283.14 2.63999C277.2 2.63999 271.48 2.52999 265.98 2.30999C260.7 2.08999 255.75 1.87 251.13 1.65C251.13 3.41 251.24 5.72 251.46 8.57999C251.9 11.22 252.56 13.64 253.44 15.84C264.22 17.16 270.82 21.23 273.24 28.05C275.66 34.65 274.34 46.2 269.28 62.7L234.466 173.499C228.847 157.408 222.852 140.716 216.48 123.42C209 102.3 201.41 81.18 193.71 60.06C186.01 38.94 178.53 18.92 171.27 0C167.75 0 164.89 0.109999 162.69 0.329996C160.49 0.549993 158.51 0.989994 156.75 1.65L133.749 69.4297C120.473 61.5398 102.735 56.7202 83.25 56.7202C76.1927 56.7202 69.3646 57.3525 62.8947 58.5338C61.9398 55.5829 60.995 52.6816 60.06 49.83C56.76 39.93 54.89 32.67 54.45 28.05C54.01 23.43 55.44 20.35 58.74 18.81C62.26 17.27 67.87 16.28 75.57 15.84C76.23 13.2 76.67 10.67 76.89 8.24999C77.11 5.61 77.22 3.41 77.22 1.65C73.26 1.87 68.75 2.08999 63.69 2.30999C58.85 2.30999 54.12 2.41999 49.5 2.63999H37.29H28.38H18.48C15.18 2.41999 11.88 2.30999 8.58 2.30999ZM92.3947 152.362C89.3979 152.599 86.346 152.72 83.25 152.72C74.7606 152.72 66.6028 151.805 59.0013 150.12C58.0366 147.05 57.0695 143.98 56.1 140.91C48.5189 116.903 40.7898 93.0446 32.9125 69.3341C41.349 64.3495 51.5735 60.601 62.8947 58.5338C66.4333 69.4704 70.1085 81.0891 73.92 93.39C78.98 109.01 83.93 124.74 88.77 140.58C90.007 144.572 91.2152 148.499 92.3947 152.362ZM98.604 172.995C96.6312 166.336 94.5615 159.458 92.3947 152.362C97.1771 151.985 101.819 151.316 106.277 150.383L98.604 172.995ZM106.277 150.383C112.923 148.993 119.158 147.018 124.838 144.551L146.615 79.4634C143.043 75.7513 138.707 72.3764 133.749 69.4297L106.277 150.383Z" fill="#252525"/>
</svg>
