<svg width="335" height="264" viewBox="0 0 335 264" fill="none" xmlns="http://www.w3.org/2000/svg">
<path fill-rule="evenodd" clip-rule="evenodd" d="M104.035 54.0306C127.724 49.3643 144 39.6845 144 28.5C144 12.7599 111.765 0 72 0C32.2355 0 0 12.7599 0 28.5C0 42.579 25.7905 54.2735 59.6908 56.5851C59.6392 57.5194 59.5722 58.481 59.4898 59.4702L48.9298 176.95C47.8298 190.37 46.2898 200.38 44.3098 206.98C42.3298 213.58 39.5798 218.09 36.0598 220.51C32.7598 222.71 28.1398 224.14 22.1998 224.8C21.5398 227 21.0998 229.53 20.8798 232.39C20.6598 235.25 20.5498 237.45 20.5498 238.99C23.6298 238.77 27.0398 238.55 30.7798 238.33C34.7398 238.33 38.6998 238.22 42.6598 238H53.5498H70.7098C77.5298 238.22 83.5798 238.55 88.8598 238.99C88.8598 237.45 88.7498 235.25 88.5298 232.39C88.3098 229.53 87.8698 227 87.2098 224.8C80.8298 224.14 75.7698 222.6 72.0298 220.18C68.5098 217.54 66.3098 213.14 65.4298 206.98C64.5498 200.6 64.6598 191.58 65.7598 179.92L76.389 73.9407L153.21 240.97C155.85 240.97 158.27 240.75 160.47 240.31C162.67 240.09 164.76 239.54 166.74 238.66L235.12 73.7246L246.93 186.85C246.997 187.445 247.062 188.032 247.123 188.611C212.362 191.826 186 207.343 186 226C186 246.987 219.355 264 260.5 264C301.645 264 335 246.987 335 226C335 208.401 311.544 193.596 279.708 189.275C279.436 187.152 279.18 184.914 278.94 182.56L267.06 61.4502C265.74 48.2502 267.17 39.4502 271.35 35.0502C275.75 30.4302 281.8 28.1202 289.5 28.1202C290.16 25.7002 290.6 23.2802 290.82 20.8602C291.04 18.4402 291.15 16.1302 291.15 13.9302L282.57 14.5902C279.93 14.5902 277.18 14.7002 274.32 14.9202H266.07H257.16C254.3 14.7002 251.44 14.5902 248.58 14.5902C245.72 14.3702 242.97 14.1502 240.33 13.9302L168.468 196.422L104.035 54.0306ZM279.708 189.275C280.68 196.875 281.854 202.997 283.23 207.64C284.99 213.58 287.41 217.76 290.49 220.18C293.79 222.6 297.97 224.03 303.03 224.47C303.69 226.67 304.13 229.09 304.35 231.73C304.57 234.37 304.68 236.79 304.68 238.99C302.04 238.77 299.07 238.55 295.77 238.33C292.47 238.33 288.95 238.22 285.21 238H274.65H265.08H251.88C247.04 238.22 242.2 238.33 237.36 238.33C232.74 238.55 228.56 238.77 224.82 238.99C224.82 237.01 224.93 234.7 225.15 232.06C225.59 229.42 226.14 227 226.8 224.8C233.84 224.14 238.9 222.71 241.98 220.51C245.28 218.31 247.15 214.57 247.59 209.29C248.209 204.335 248.054 197.442 247.123 188.611C251.463 188.21 255.933 188 260.5 188C267.141 188 273.58 188.443 279.708 189.275ZM104.035 54.0306C94.3869 55.9312 83.5088 57 72 57C67.8034 57 63.6906 56.8579 59.6908 56.5851C60.0519 50.039 59.6549 44.8407 58.4998 40.9902C57.3998 36.3702 55.0898 33.0702 51.5698 31.0902C48.2698 29.1102 43.5398 28.1202 37.3798 28.1202C36.7198 25.9202 36.2798 23.5002 36.0598 20.8602C35.8398 18.2202 35.7298 15.9102 35.7298 13.9302C37.9298 14.1502 40.4598 14.3702 43.3198 14.5902C46.1798 14.5902 49.1498 14.7002 52.2298 14.9202H60.8098H69.0598C71.9198 14.7002 74.6698 14.5902 77.3098 14.5902L85.8898 13.9302L104.035 54.0306Z" fill="#252525"/>
</svg>
