<svg width="588" height="1068" viewBox="0 0 588 1068" fill="none" xmlns="http://www.w3.org/2000/svg">
<path d="M427.97 0.690688C417.911 -2.09576 407.498 3.79963 404.712 13.8585L298.076 398.802H10.2008C7.68854 398.802 5.56638 400.666 5.24251 403.157L0.0425135 443.157C-0.346471 446.149 1.98342 448.802 5.00079 448.802H25.3087L122.309 1036.8C122.309 1053.92 201.778 1067.8 299.809 1067.8C397.839 1067.8 477.309 1053.92 477.309 1036.8L560.309 448.802H582.06C585.097 448.802 587.433 446.116 587.012 443.108L581.412 403.108C581.066 400.639 578.954 398.802 576.46 398.802H337.298L441.138 23.9491C443.924 13.8903 438.029 3.47714 427.97 0.690688Z" fill="#252525"/>
</svg>
