<svg width="1260" height="729" viewBox="0 0 1260 729" fill="none" xmlns="http://www.w3.org/2000/svg">
<path fill-rule="evenodd" clip-rule="evenodd" d="M173.5 0H585L602 47.5V204.66L613.5 195V49H745.5L750.5 175.5L759 182.5V204H1202.5L1260 226V545.5L1206 566.5L1111.5 691V729H857V691L758.391 565H754.5V729H653L671 643L608 565H602V729H522V686.5H236V729H157V565H151L88 643L106 729H4.5V566C4.5 565.448 4.05228 565 3.5 565H0V389V182.5L8.5 175.5L13.5 49H145.5V195L157 204.66V53L173.5 0Z" fill="#252525"/>
</svg>
