<?xml version="1.0" encoding="UTF-8"?>
<svg id="_Слой_2" data-name="Слой 2" xmlns="http://www.w3.org/2000/svg" viewBox="0 0 180.88 157.82">
  <g id="_Слой_1-2" data-name="Слой 1">
    <path d="m129.68,98.41c3.39-12.82,6.94-25.61,10.12-38.48,3.39-13.73,4.42-27.77,5.26-41.52-4.18-2.3-6.21-.07-9.29,1.47-5.02,2.5-11.2,3.2-16.95,3.56-8.59.55-17.24-.04-25.85.21-7.31.21-14.69.41-21.89,1.56-8.99,1.43-17.6.07-26.2-1.95-4.85-1.14-9.56-2.86-14.64-4.41-.04.28-.23,1.01-.2,1.74.21,5.44,3.81,10.54.23,16.52-1.27,2.13.22,7.41,2.22,9.69,5.2,5.94,6.32,13.31,9.09,20.14,2.06,5.08,5.47,9.59,8.09,14.46,1.8,3.35,4.96,7.11,4.51,10.27-.7,4.94-.06,9.61.09,14.39.06,1.9-1.75,5.33,2.89,4.03-.2.98-.56,1.97-.57,2.95-.03,2.84-.23,5.74.31,8.48.2,1.04,2.15,2.02,3.49,2.46.77.25,1.92-.61,3.19-1.09,2.98,6.04,8.97,5.75,14.64,5.58,13.1-.4,26.19-1.22,39.29-1.66,4.6-.15,6.94-2.36,7.26-7.14.37-5.46.95-10.92,1.87-16.31.25-1.5,2.02-2.74,3.1-4.1.03,2.16.07,4.32.09,6.48.02,2.15,0,4.3,0,5.78,14.24,2.84,28.27,5.24,42.06,8.65,2.86.71,5.34,2.91,8,5.15,1.3,1.1,1.28,2.92.29,4.3-.04.06-.07.12-.1.18-3.97,11.41-12.09,17.6-23.88,19.21-14.77,2.02-29.72,3.16-44.28,6.19-10.2,2.12-20.29,3.25-30.47,2.23-10.53-1.06-21.05-2.86-31.37-5.22-7.71-1.76-15.4-4.3-22.52-7.71-4.18-2-7.23-6.37-10.79-9.68,8.64,4.55,18.1,5.57,27.56,6.69-7.69-6.8-17.66-7.54-26.7-10.7-1.82-.63-3.38-1.99-5.66-3.39-2.09,1.55-2.37,3.41,1.09,5.25,1.31.69,2.55,1.49,3.83,2.24-2.4-.66-5.08-.86-7.1-2.12-1.85-1.15-3.81-3.31-4.16-5.29-.25-1.41,1.75-3.96,3.36-4.8,3.96-2.04,8.2-3.66,12.48-4.91,4.19-1.22,8.58-1.78,13.27-1.93-5.54,3.13-11.08,6.26-16.78,9.47.93,1.32,1.83,3.94,3.52,4.63,1.84.75,4.49-.77,6.66-.46,9.79,1.4,19.53,3.11,29.3,4.68.46.07.95-.08,2.19-.21-6.07-4.13-6.12-10.65-7.55-16.25-1.25-4.91-2.67-7.27-8.11-5.84,1.73-.95,3.47-1.91,5.27-2.9-1.66-6.67-3.21-13.23-4.96-19.73-.35-1.31-1.25-3.2-2.28-3.48-7.78-2.17-11.24-9.06-16.15-14.34-3.62-3.9-6.62-8.49-10.66-11.84-7.14-5.92-10.72-13.9-14.13-22.01-2.92-6.95.35-12.32,8-13.14,4.68-.5,9.45-.1,14.54-.1-.26-2.65-.34-6.71-1.12-10.64-.68-3.42,1.31-4.5,3.69-5.32,9.43-3.27,19.14-3.97,29.05-3.2,3.12.24,6.31.02,9.44-.26C83.87,3.2,103.04.51,122.27.01c10.05-.26,15.4,3.53,25.42,5.77,2.14,2.53,4,6,5,10,1.9,7.62-1.29,15.36-3,23-1.13,5.06.9,9.84-1.45,14.65-.64,1.32-1.14,2.71-1.45,4.14-1.23,5.6-2,10.96-5.94,16.02-3.82,4.92-5.04,11.84-7.54,17.82-1.01,2.42-2.41,4.67-3.63,7ZM23.59,49.77c-7.26-.74-11.43-5.66-14.12-11.6-1.3-2.87-.68-6.61-.93-9.91-3.57.69-6.17,5.63-3.73,10.49,2.36,4.7,5.83,8.97,9.36,12.94,6.13,6.9,12.71,13.39,19.03,20.12,2.33,2.48,4.46,5.13,6.68,7.71.39-2.43.03-4.38-.8-6.11-2.41-5.02-5.02-9.95-7.55-14.91.68.15,1.36.3,2.88.63-1.33-3.07-1.88-5.85-3.48-7.75-3.98-4.71-5.91-9.93-5.36-16.01.27-2.96-.96-4.29-3.81-4.56-3.51-.32-7.36-.04-8.33,3.62-.61,2.3.72,5.71,2.26,7.84,2.09,2.89,5.21,5.03,7.88,7.49Zm6.1-37.78l-.23,1.44c9.28,5.44,19.76,5.74,29.95,6.14,15.25.59,30.54.2,45.82.04,4.38-.05,8.93-.11,13.08-1.27,4.96-1.39,9.6-3.92,14.32-6.09.68-.31,1.29-1.29,1.43-2.05.07-.41-.85-1.33-1.46-1.48-4.81-1.22-9.69-3.39-14.48-3.24-15.82.49-31.62,1.9-47.43,2.81-10.08.58-20.2.72-30.27,1.4-3.62.25-7.16,1.5-10.74,2.3Zm100.22,105.88c-1.12,5.61-2.35,11.76-3.6,18.07,3.66,0,7.11.56,10.29-.12,8.2-1.74,18.04-.03,23.13-9.74-.71,2.42-1.51,4.92-3.06,6.8-6.22,7.52-14.74,10.49-24.13,11.03-12.29.7-24.6.97-36.9,1.55-2.04.1-4.06.88-7.54,1.68,4.01,1.26,6.48,2.06,8.97,2.8.55.16,1.13.24,1.7.22,20.73-.63,41.31-2.58,61.31-8.3,6.92-1.98,12.06-6.14,14.56-13.2.82-2.32-.77-4.8-3.21-5.13-13.8-1.88-27.51-3.74-41.51-5.65Z"/>
  </g>
</svg>