<svg width="1162" height="1412" viewBox="0 0 1162 1412" fill="none" xmlns="http://www.w3.org/2000/svg">
<path fill-rule="evenodd" clip-rule="evenodd" d="M783.52 134.93C783.52 60.9236 843.514 0.929762 917.52 0.929768L952.47 0.929771C1026.48 0.929777 1086.47 60.9236 1086.47 134.93L1086.47 336.829L1086.53 336.829L1086.53 337.138L1162 374.571L1162 1036.15L1086.53 1075.13L1086.53 1075.45L1085.91 1075.45L811.083 1075.45L812.569 1075.45L812.569 1079.43C812.569 1082.47 811.315 1085.37 809.102 1087.45L806.357 1090.03C803.259 1092.94 801.07 1096.68 800.057 1100.81L792.262 1132.56L774.211 1199.66L560.105 1199.66L560.105 1277.07C560.105 1351.08 500.111 1411.07 426.105 1411.07L396.589 1411.07C322.582 1411.07 262.589 1351.08 262.589 1277.07L262.589 1075.45L262.588 1081.69L262.588 1091.36L262.588 1106.64L262.588 1136.58L262.588 1199.28L37.1116 1199.28L19.6474 1132.22L12.0851 1100.4C11.1174 1096.33 9.00821 1092.61 6.00514 1089.7L3.33811 1087.11C1.20422 1085.04 2.75435e-05 1082.19 2.78035e-05 1079.22L2.81602e-05 1075.14L0.000226016 1075.14L0.000279712 337.452L0.000290565 336.829L1.08285 336.829L4.27228 334.992C8.19454 332.734 11.3474 329.348 13.3217 325.275C14.6115 322.615 15.2815 319.697 15.2815 316.74L15.2815 306.417L15.2815 275.381L15.2815 213.309L252.297 213.309L269.761 280.372L277.323 312.191C278.291 316.262 280.4 319.974 283.403 322.889L286.07 325.478C288.204 327.55 289.409 330.397 289.409 333.371L289.409 336.829L512.94 336.829L512.94 333.676C512.94 330.64 514.195 327.739 516.407 325.66L519.153 323.08C522.251 320.169 524.439 316.422 525.453 312.293L533.247 280.545L551.299 213.447L783.52 213.447L783.52 134.93Z" fill="#353232"/>
</svg>
